<svg width="110" height="110" fill="none" xmlns="http://www.w3.org/2000/svg"><circle opacity=".05" cx="55" cy="55" r="55" fill="#000"/><g opacity=".9" stroke="#B01736" stroke-width="2"><path d="M40.604 44.4c-2.103 0-3.8-1.693-3.8-3.753 0-.385.168-1.063.515-1.978.334-.879.79-1.865 1.267-2.82a67.707 67.707 0 0 1 2.018-3.713 67.921 67.921 0 0 1 2.02 3.714c.476.954.932 1.94 1.265 2.82.347.914.515 1.592.515 1.977 0 2.06-1.697 3.754-3.8 3.754Zm-3.799 1.957a1.4 1.4 0 0 1 1.4-1.4h4.799a1.4 1.4 0 0 1 1.4 1.4v12.05h-7.6v-12.05Zm14.398 0a1.4 1.4 0 0 1 1.4-1.4h4.8a1.4 1.4 0 0 1 1.4 1.4v12.05h-7.6v-12.05Zm7.599-5.71c0 2.06-1.696 3.754-3.8 3.754-2.102 0-3.799-1.694-3.799-3.755 0-.384.168-1.062.515-1.977.334-.879.789-1.865 1.266-2.82a67.707 67.707 0 0 1 2.019-3.713c.364.622 1.21 2.097 2.019 3.714.477.954.932 1.94 1.266 2.82.347.914.514 1.592.514 1.977Zm6.8 5.71a1.4 1.4 0 0 1 1.4-1.4h4.8a1.4 1.4 0 0 1 1.399 1.4v12.05h-7.6v-12.05Zm3.799-1.957c-2.103 0-3.8-1.693-3.8-3.753 0-.385.168-1.063.516-1.978.333-.879.788-1.865 1.266-2.82a67.847 67.847 0 0 1 2.019-3.713c.363.622 1.21 2.097 2.018 3.714.478.954.933 1.94 1.266 2.82.347.914.515 1.592.515 1.977 0 2.06-1.696 3.754-3.8 3.754ZM31.734 67.487l2.081 1.614c1.014.786 2.782.786 3.796 0l2.082-1.614c.464-.358 1.27-.36 1.735 0l2.08 1.614c1.049.813 2.752.811 3.797 0l2.08-1.614c.464-.358 1.27-.36 1.736 0l2.081 1.614c.507.393 1.181.61 1.898.61.717 0 1.392-.217 1.9-.61l2.08-1.614c.465-.36 1.272-.358 1.736 0l2.08 1.614c1.049.813 2.752.811 3.797 0l2.081-1.614c.465-.36 1.271-.358 1.735 0l2.081 1.614c1.046.81 2.749.812 3.796 0l2.082-1.614"/><rect x="32.004" y="58.475" width="45.995" height="19.523" rx="3.8"/></g></svg>