<svg width="111" height="110" fill="none" xmlns="http://www.w3.org/2000/svg"><circle opacity=".05" cx="55.998" cy="55" r="55" fill="#000"/><rect x="58.936" y="58.895" width="9" height="9" rx="1" stroke="#B01736" stroke-width="2"/><path d="M40.147 52.235V77a1 1 0 0 0 1 1H70.93a1 1 0 0 0 1-1V52.235M54.147 78V59.895a1 1 0 0 0-1-1h-7a1 1 0 0 0-1 1V78M34.446 52h43.105c1.362 0 1.968-1.67.907-2.504l-21.84-17.184a1.474 1.474 0 0 0-1.83.012L33.524 49.507c-1.042.842-.431 2.493.922 2.493Z" stroke="#B01736" stroke-width="2"/></svg>