<svg width="1190" height="605" fill="none" xmlns="http://www.w3.org/2000/svg"><g opacity=".1" fill="#B01736"><path d="m1049.83 438.948-5.89-7.157-4.72-5.964-3.53-4.771v1.193h-1.18v-2.386l-2.36-1.192-2.36-2.386-1.17-5.964-2.36-7.157h-1.18l-2.36-2.385-1.18-2.386h1.18l1.18 1.193v1.193h1.18l-4.71-5.964-3.54-4.771v-2.386l-3.54-2.386-1.17-1.192v2.385h-1.18l-1.18 1.193 2.36 1.193 3.53 2.385v1.193h1.18v2.386h-1.18v1.193l1.18 1.192-1.18 3.579-1.18-1.193h-1.18l-2.35 1.193v2.385l1.18 2.386 1.17 1.193 4.72 16.677 4.71 3.579 5.9 4.771 1.17 3.578v4.772l2.36 2.385 1.18 2.386 7.07 21.459v1.193l4.72 3.578 2.35 4.771 1.18 3.579v4.771l2.36 2.386 1.18 2.385 2.35 9.532 4.72 7.157 1.18-1.193v-2.386l-1.18-5.964 1.18-4.771 1.18 1.193 3.53-1.193 4.72 2.386 1.17 2.385 1.18 1.193-2.35-5.964-2.36-4.771-1.18 1.193-4.71-2.386-2.36-2.385-4.72-3.579-3.53-5.964-1.18-7.156v-5.965l-1.18-2.385v-2.386l1.18-1.192 1.18-2.386 5.89-1.193 5.89 2.386 2.36 1.193 1.18 1.192-2.36-2.385-3.53-2.386-2.36-2.385-1.18-2.386-7.07-7.114Z"/><path fill-rule="evenodd" clip-rule="evenodd" d="M718.879 113.552h2.357l4.715 4.771-1.179 2.386-2.357 1.192-3.536-2.385-1.178-2.386h1.178v-3.578Zm149.572 22.642v1.192l-2.357 1.193-2.357-1.193 1.179-1.192 2.357-1.193 1.178 1.193Zm263.809 84.027h-2.36v14.302h1.18v-3.578l1.18-2.385v-2.386l1.18-1.193 1.18-2.385-2.36-2.375Zm-95.39-156.734h-1.18l-1.18 3.578 4.72 2.386 2.35-1.193 2.36-2.386-1.18-1.193-1.18-2.385h-2.35l-2.36 1.193Z"/><path d="m976.804 501.08-1.179 2.386 1.179 2.385 3.536 3.579-2.357 3.578-1.179 1.193v5.964l1.149 5.812v12.505l-1.179 2.385 1.179 2.386-1.179 1.193-1.179 2.385 1.179 3.579-2.357 2.385h-9.418l-3.536 1.193-1.178 4.771-2.357 1.193-1.179 1.193 5.893 11.928 1.178 7.157 1.179 1.192v1.193l-1.179 8.339-3.535 1.193-1.179 2.385h1.179l1.178 1.193 2.357 4.771 1.179-2.385v-1.193l-2.357-2.386h5.893v-2.385l1.178-4.771 2.357-3.579-1.178-1.193 1.178-1.192h1.179v3.578l3.536-3.578v-1.193l1.178 3.578v2.386h1.179v-1.193h1.178l1.179 1.193 1.178-1.193 2.357 1.193 1.179 1.193v-2.386l1.179 1.193 2.357-1.193 9.428-9.542 4.713-8.339 1.18-1.193v-2.386h1.18v-4.771l1.18-3.578v-2.386l2.35-2.385 1.18-5.964 4.72-14.314 2.35-5.963 1.18-5.964 1.18-7.157v-5.964l1.18-4.771.01-2.811 2.36-10.725 2.35-8.339v-1.192l-1.18-2.386v-4.771l-1.17-1.193v-3.578l-1.18-3.579-2.36-4.771v-3.578l-5.89-16.689v-2.385l1.18-5.964-1.18-4.771 1.18-2.386-1.18-1.193-1.18 1.193-2.36-3.578v-3.579h-1.18l-1.18-1.192-4.71-2.386h3.54l1.17-2.386-1.17-2.385h-2.36l-2.36-1.193-1.18-1.193h-3.532l-3.536-2.385v-1.193l-2.357-1.193h-1.179l-1.178-1.193H987.4l-2.357 2.386-3.535 1.193h-1.179l1.179 2.385v9.532l-1.179-2.386v-4.771l-2.357 4.771-5.893 5.964v-3.578l2.357-4.771h-1.178l-1.179 1.193h-1.178l-2.357-1.193 2.357-2.386v-1.193l-3.536 3.579 1.179 1.193v3.578h-2.358v1.193l-2.357-5.964-3.535-5.964-8.24 3.578-5.893-2.385 2.357-3.579 1.179-2.385 2.357-3.579 1.179-3.578 1.178-2.386 1.179-1.192 3.536-5.964 1.178-7.157 2.357-2.386v-1.192l-1.178-1.193 1.178-2.386v-3.578l1.179-1.193 2.357-5.964 3.536-7.157v-2.385l1.178-1.193 1.179-2.385v-5.964l1.178-4.772 2.357-2.385 1.179-9.532 5.893-8.339h1.178l3.536-3.578 5.893-2.386 5.893-3.578h1.183l1.17-1.193h1.18v2.386l2.36 1.193 1.18-2.386-1.18-3.578 4.67.043 3.54-1.193h1.18l4.71-4.771h2.36l3.53-1.193-1.17-1.193h-1.18v-2.385h1.18v-4.772l7.07-2.385h3.53v1.193h2.36v-2.386l3.54-2.386 4.71 2.386 2.36-1.193h1.18v1.193h-1.18l-2.36 2.386-2.36 1.192 1.18 3.579h1.18l2.36-1.193 2.35-3.578 1.18-1.193h2.36l2.36-1.193v-3.578l1.17-2.386 3.54-1.193h2.36l1.18-1.193v-2.385h3.53l-1.18-1.193h1.18l1.18-1.193-1.18-2.385-2.36-1.193-2.35 1.193-1.18 1.193v1.192l-1.18 1.193h-1.18v-4.771h-1.18l-1.18-1.193v-1.193l1.18-1.192h-1.18v-7.157l2.36-4.771 1.18-5.964-1.18-1.193v-4.771l1.18-2.386-2.36-4.771 2.36-4.771 1.18-3.578h2.36l1.17-1.193 4.72-7.157h3.53l2.36 1.193 1.18-3.578v-2.386l2.36 2.386 1.18 2.385v4.771l2.35 2.386v1.193l1.18 1.193 2.36-2.386 1.18 2.386 1.18 3.578 2.35-11.917 2.36-13.11 1.15-1.801v-1.193l1.18 1.193h2.35v-3.578h-3.53l-2.36-4.772v-2.385l-1.18-1.193-1.18-3.578 3.54-2.386 1.18-3.578h5.89l-2.36 2.385-1.17 4.772 4.71 7.156v2.386l1.18 2.385h2.36l1.17 3.579v2.385l2.36 2.386-1.18 2.386-2.35 2.385v3.578l-1.18 1.193-1.18 2.386v3.578l1.18 1.193-1.18 7.157v5.964l-1.18 1.192v1.193l-1.18 4.771v4.771l2.36 2.386v1.193l-1.18 1.193v7.156l-2.36 9.543-1.18 2.385-1.17 1.193v3.578l-4.72 2.386 2.36 1.193 2.36 3.578v7.157l-1.18 5.964 2.35 7.156 3.54 7.157 16.49 22.653 21.2 21.459 3.54 5.964 4.71 4.771 3.54 2.386 1.18-5.964v-5.964l1.17-1.193 1.18-3.578-1.18-10.725-2.35-2.385h-1.18v-2.386l-1.18-2.385h-1.18l-1.18-1.193 1.18-1.193 2.36 1.193 3.53-8.339 2.36-1.193h1.18v-1.193l-5.89-4.771-2.36-7.157v-5.964l3.54-5.963h1.17l1.18 1.192 2.36-4.771v-3.578l-7.07-4.771-3.54-8.339 1.18-8.339v-1.193l-1.18-1.193 1.18-2.385 1.18 1.193v3.578h2.36l1.18-3.578-5.9-4.771v-1.193l-2.35 2.385-3.54-3.578-2.36-3.579v-3.578l-1.17-3.578h-5.92l-1.18 1.193 1.18 1.192-2.36 1.193-2.35-1.193-3.54-10.724v-7.157l-1.18-1.193h1.18v-1.192h-1.18v-3.579l-1.18-1.193h-1.17l-1.18-5.963 2.35-4.772 1.18-1.192-1.18-1.193h3.54l2.36 1.193 1.18-3.579-2.36-1.193V204.8l2.36-4.771 1.17-4.772 1.18 1.193 4.72 7.157v-8.339l1.18-5.964 3.53-7.157 4.72-2.385 5.89-2.386 4.71 2.386h3.54l-1.18-3.579-2.36-3.578 1.18-2.386 1.18-3.578v-5.964l1.18-1.193-1.18-2.385h-1.18l1.18-1.193h1.18l-2.36-2.386h1.18l1.18-3.578-1.18-1.193h-1.18l2.36-2.385v-3.579h-1.18V140.4h1.18l1.18-2.386v-2.385l1.16-.565 1.18-3.578v-4.771l4.72-14.314h-2.36v-1.192l-1.18-1.193h1.18v-1.193l2.36 2.386 11.78-7.157-1.18-1.193v-4.77l-7.07-2.386v-2.386l-3.53 1.193-3.54-1.193-5.89-3.578-7.07-3.579-1.18 3.579-4.72 1.192-3.53-3.578-1.18 3.578v1.193h-2.36v2.386l-1.18-1.193 1.01-1.193h-4.54l.39 1.236.79 2.343-2.36 1.192-1.18 1.193 1.18-2.385 1.18-1.193v-1.193l-1.18-2.386h1.18l7.07-3.578-1.18-1.193v-1.193h4.71l4.72-3.578 2.36-7.157-1.18-7.156-2.36-7.157h-3.54l-4.71-1.193-1.18-3.578 1.18-2.386h-1.18l-1.18-1.193 2.36-1.193 1.18 1.193V46.8l2.36 3.578 1.17 3.578h2.36l1.18-1.193h1.18l2.36 4.771 2.35-2.385 2.36-5.964 2.36-3.579 2.35-1.192 3.54-1.193 3.54 2.385 2.35 1.193 4.72-1.193 3.53-2.385 2.36-2.386 3.54 1.193 3.53-1.193V38.45l-1.18-1.193v-1.193l3.54 3.578 1.18-2.385-2.36-2.386h1.18l1.18-1.192v-1.193h-2.36l-2.36 1.193-2.35-2.386v1.193h-1.18l1.18-2.386v-4.771l-2.36-2.386-2.36-1.192h-5.89l4.71-2.386 2.36-2.024 1.18-2.62v-.83l-2.36.362-2.36-.83 2.36-.831 3.54-2.14-2.36-1.545-1.18-1.193V.918l-1.18.363-1.18.958-1.17.234-1.18.117-3.54.959-2.36.83-5.89.118h-3.53l-2.36 2.982-1.18 2.982-1.18.958v.234l1.18.959v.958l-2.36-.713-1.18-1.193-1.17.927-1.18 1.906-1.18 1.31-1.18 1.193 1.18.234 1.18-.83 2.35.596 2.36.958v2.62h2.36l2.36 1.193h-2.36v2.386h-1.18l-1.18-1.193-1.18 1.193h-3.53V21.77l-2.36-1.193-4.71-3.461-1.18-.234h-1.18v2.502l-1.18-.362v-.479l-1.18-1.555-2.36-1.193-2.35.714-1.18 1.193 3.53.596-1.17 1.076-2.36 2.385-1.18-2.385-1.18-1.31-1.18 1.075-2.35 1.427-1.18-1.192-1.18-.235-3.54 1.427-3.53 2.386-1.18-1.193h-1.18l-4.71 2.386-1.18-1.193-2.36-1.193-3.54 1.193-3.53 2.386h-5.89L1091 26.53l-2.36 1.193V26.53h1.18v-1.19h-1.18l-2.36 1.192-1.17 1.193-2.36 1.193h-2.36l-1.18 1.193-7.07 2.385h-1.18v2.386l-1.18-1.193h-1.17l-4.72 5.964-3.53 3.578H1058l1.18 1.193v1.193h-2.36l-2.36 1.193-1.18 1.193-2.35 1.192-3.54 2.386-3.53 1.193 2.35 2.385 1.18 2.386v3.578h2.36l1.18-1.193 5.89 3.579 1.18 5.964-1.18 2.385v2.386h-3.54l-2.35-2.386-7.07 2.386-2.36-2.386-5.89-2.385-1.18 1.193v5.963l-2.36 2.386h-2.36l-2.35 1.193-3.54 3.578-3.54 1.193-2.35-1.193v1.193l-2.36 2.386h-1.18l-1.18 2.385v1.193l-2.35 2.386-.88 2.162v2.385h-1.17v-1.193h-1.18v5.964l-1.18-2.385-2.36-2.386-3.53 1.193h-4.719l-1.179-3.578-2.357-4.772-13.143-3.397-18.846 11.917-5.893 7.157-4.714 2.386-9.429-4.772h-5.893l-4.714-1.192v1.192l-1.178 1.193h-2.358l-1.178-1.193 1.178-2.385 2.358-1.193-2.358-2.385-3.535-2.386-4.714 1.193-3.536 1.193-4.714 9.531-4.715 8.339h-1.136v-2.385l-1.179-1.193 2.357-1.193 1.179-1.193-1.179-1.193v-2.385l2.358-1.193 1.178-2.386-2.357 1.193-5.893 3.579-2.357 2.385-1.178-2.385 3.535-3.579h1.179l3.535-2.385 3.536-1.193-12.953 1.193-12.954 4.771h-5.893l-2.357 1.193 1.179 1.192 2.357 1.193-1.179 3.579-3.536 1.192-2.357 5.964 1.179 1.193 2.357-1.193v2.386l1.179 1.193 1.178 2.385v2.386l2.357 1.192v2.386h-2.357v2.386l-2.357-2.386h-1.179l-1.178 1.193h-2.357v7.157l-4.714-2.386-8.24-1.193-3.536 4.771-4.714 3.579-4.714-1.193-3.536-2.386-1.178-2.385 2.357-1.193-2.357-1.193-1.179 10.725-1.178 13.11-1.179 1.193-2.357-2.386v1.193h-2.357l-1.179-1.193v-1.193h-3.535l-4.715-7.157h-1.178l-1.179-1.192 2.357-2.386-1.178-2.386-2.357-1.192 1.178 1.192v1.193l-1.178 1.193-2.357-2.386-1.179-2.385-5.893-3.578-2.357-1.193h3.536l4.714 4.771h3.536l2.357-2.386-1.179-3.578-2.357-2.386v-4.771l-1.178-2.385v-1.193l-2.358-2.386h-2.357l-7.071-5.964-4.714 2.386h-5.893l-3.536-2.386-4.714-1.192v1.192l-1.179 1.193-2.357 5.964 1.179 4.771v4.771l-2.357-1.192h-3.536v1.192h-2.357l-2.357 1.193-1.179 1.193-3.535-1.193-2.358-1.193h-7.06l-2.358-1.192v-2.386l2.358-2.385-1.179-1.193h-9.418l-2.357-1.193-1.179 1.193h-1.178l-2.357-1.193h-2.357l-2.358 2.386-2.357 1.192-3.535 1.193v3.578l-2.357-2.385 1.178-2.386-1.178-3.578-2.358-2.386v3.579l-1.178 1.193h-3.462l-3.536-2.386-1.178 1.193-1.179 3.578-2.357 2.386 1.179 1.192h1.178v3.579l1.179 1.193-1.179 4.771 1.179 4.771 1.178 1.193v3.578l1.179 1.193 2.357 1.193 2.357 2.385 1.179 4.771v4.771l2.357 4.772 1.178 3.578v1.193l-9.428 7.156-1.179 3.579v2.385l-1.178 1.193-2.357 1.193v4.771l-2.358 3.579h-2.357l-3.535-1.193-3.536 1.193-2.357 2.385h-2.336l-2.357-1.193v1.193h-1.179l-1.179 2.386v1.192l1.179 4.772 2.357 3.578v16.688l-1.178 13.11-3.536 2.386-2.357 2.386 2.357 2.385v8.339l1.178 2.386v5.963l1.179 2.386 4.714 4.771-1.178 2.386-1.179 1.193-2.357 3.578v3.578l-2.357 3.579 2.357 4.771h2.357l2.357 2.385 4.715 1.193h8.239l1.178 2.386 1.179 3.578-1.179 1.193-2.357 3.578 3.536 1.193 3.536 3.578 1.147 8.116.031 6.187 2.357 2.386 2.358 3.578-1.179 2.386-2.357 2.385 1.178 5.964 3.536 3.579-2.357 5.964-2.357 7.156v3.579l-2.357 2.385v5.964l1.178 4.771h2.357l5.893-1.192 1.179-2.386 3.535 1.193h1.179v-1.193h7.071l3.536-3.578v1.192l1.179 2.386 2.357 1.193-1.179 3.578 5.893-5.964 4.714-7.156h2.357l1.179-2.386 1.178-3.578 2.358-1.193h2.357l3.535-3.579h4.715l3.535 1.193 2.357 2.386 2.358 1.193v2.385l1.178 1.193v2.386h11.786l1.178 2.385v2.386l1.179 2.385v3.579l1.178 2.385 1.179 1.193v1.193l1.178 2.385v7.157l2.358 4.771 1.178-1.193h1.179l1.178 4.772 3.389 4.573v4.233h1.179v2.386l1.178 1.193 4.715 2.385-1.179 1.193h-1.179v2.386l2.358 2.385h1.178v-1.192l2.357-1.193 3.536-1.193 2.357 3.578 1.179 3.579h1.178l2.357-1.193 2.357 5.964-2.357 5.964 1.179 1.193h1.178l3.536 2.385-2.357 2.386v3.578l-1.179 2.386 3.536 3.578 2.357 3.578h5.893l4.714-2.385h1.179l1.178-1.193 4.715 2.386 1.178-1.193 3.536 2.385 3.536 1.193v-1.193h7.071l1.178 1.193v1.193h1.179l1.179 1.193h1.178v2.385h1.179l3.535 3.579 1.179 4.771 5.893 7.156h1.178v1.193l1.179 1.193v2.386l2.357 2.385 2.357 3.579 1.179 1.192 1.178 3.579h1.179l1.178 1.193v2.385l3.536 5.964 9.428-2.386 1.179 1.193h2.357v1.193h1.179l1.178-1.193 1.179 1.193v-1.193h1.178v-1.193l4.715 3.579 8.239 1.193 1.153.543v4.771l3.536 3.578v2.386l1.179 2.385 2.357 2.386 2.357 1.193 2.357-1.193h1.179l7.071-3.578h2.357l1.179-2.386v-2.386l2.357-1.192 2.357-2.386h2.357l2.357-4.771 3.536-2.386 4.706.15Z"/></g><g opacity=".7" fill="#B01736"><path d="m4.062 314.143-2.989-2.098L0 307.742l3.567-1.64.495 8.041Zm78.963 44.942.705-1.193-.358-1.192h-1.536l-1.41 1.192-.232-1.192.116-1.193h-1.178l-.821-1.193-2-2.386-2.357-1.192-.589 2.385-.59 1.193-2.114-1.193-1.768-1.193-1.537 2.386-.947 3.578 1.063 3.579-.705 2.385.947 1.193-1.768 2.386-1.883 1.192-.474-1.192H63l.116 4.771 1.883 2.385 1.526 3.579h1.652l1.537 1.192-.474 1.193h-2.704l-2 1.193.474 1.193h1.294l-.947 1.193-1.41 2.385h2.704l3.063 1.193.589 1.193-.232 1.193 3.294 2.385h2.589l2.241 2.386 1.294 1.193h.59l-.947 1.192h-1.179l2.946 2.386.474 3.578 2.588-1.193 1.768-1.192.474 1.192.947 1.193h2.115l.59-3.578-1.769-1.193h4.01l.231-2.385h-.705l1.768-1.193 1.652 1.193 3.294-2.386 2.115-1.193-.947-5.964-2.705-5.964-1.652-2.385-.705-2.386.821-5.964-1.41-2.385-1.768-2.386-.947-2.386-1.063-3.578h-7.05Z"/><path d="M133.786 349.554h-1.536l-1.294-1.193-.232 1.193h-.231l-.947-1.193h-1.537l-1.999 1.193 1.179 2.385.705 3.579 1.41 1.192.947 1.193-1.537 1.193-1.062 2.385.357 3.579 1.179 2.385h3.062l2.473 2.386h-1.999l-2.589 1.193-1.063 10.735-4.241 1.193h-4.356l.231 1.192 1.179 1.193-.474 1.193-.357 1.193 1.178 1.193.821 1.192-4.009 1.193-1.063 3.578.474 1.193h2.357l1.641 2.386v1.193h1.179l-.232 1.193h1.063l.705-1.193 3.42 2.385.116 1.193h.116l1.294-1.193h.589l-.231 1.193.82-1.193 1.179-1.192.705 1.192-.116 1.193-.947 1.193-.473 1.193 2.82-2.386 3.294-2.385 3.419-1.193.59 1.193-2.115-9.532h.705l1.41 2.385h2.357l1.178-8.338v-9.532l-2.357-2.386-1.883-2.385-1.179 1.192-1.178-1.192 1.062-3.579 2-2.385-.474-3.579-1.178-3.578 2.83-2.385-1.178-2.386-.705-2.386-3.536-1.192-3.736-.032Zm-47.584 52.45-.474-1.192-1.767 1.192-2.589 1.193h-1.063l.947 1.193 2.589 2.385-2.473 4.772h-.231l-.474 1.192-3.767 1.193-3.294-1.193 1.294-1.192h-4.588l.358 1.192-.231 1.193h1.652l1.883 2.386.59 2.385.231 1.193 1.294 1.193 1.295 2.386 2.473-1.193h2.588l1.295 1.193.473-1.193h4.24l1.18-2.386 1.999-3.578 2.946-1.193 2.589-1.193.358-2.385-.59-2.386h-3.998l.115-1.193.358-1.193h-1.536l-1.652-1.192-.116-1.193-.231-1.193H87.17l-.968-1.193Z"/><path d="m76.56 400.812-1.769 1.192h-1.41l-.947-1.192h-1.178l-1.295 1.192-.705-1.192-.947-1.193-2.588 1.193-2.705 1.192-1.063-1.192h-1.062l1.767 5.963.116 2.386 3.42 1.193 4.125 1.193h4.588l.947-3.579-1.178-1.193 1.294-2.385 1.883-2.386h.59l.358 1.193h2.588l-.473-3.578-2.947-2.386-1.41 3.579Zm50.635-48.873-1.178-2.385h-3.536v-2.386l-1.768-1.193-.821 2.386-1.536 2.385-4.356-2.385-5.767 2.385-.705 1.193 1.999 1.193h3.536l-1.652 3.578-3.294 2.386-.463 2.385h-6.008l-.947 2.386-1.295 1.193h-.473l-.59-1.193-1.767 1.193-2.115-1.193-3.652-8.339-5.061-3.578-3.178 1.193-4.241 1.192.82 1.193h1.18l-.116 1.193.231 1.193 1.41-1.193h1.536l.358 1.193-.705 1.192h7.072l1.062 3.579.948 2.385 1.767 2.386 1.41 2.386-.82 5.964.705 2.385 1.652 2.386 2.704 5.964.947 5.964.821 1.192 1.884 1.193 3.535 5.964 2.473 3.578h1.294l.821 1.193.947-1.193h.705l3.652-2.385 3.883-1.193.82-1.193h1.179v-1.193l-1.642-2.385h-2.357l-.473-1.193 1.063-3.578 4.009-1.193-.821-1.193-1.179-1.193.358-1.192.474-1.193-1.179-1.193-.231-1.193h4.356l4.241-1.193 1.063-10.735 2.588-1.192h2l-2.473-2.386h-3.062l-1.179-2.386-.358-3.578 1.063-2.386 1.536-1.192-.947-1.193-1.41-1.193-.747-3.589Z"/><path d="m81.263 404.379-.947-1.193h-1.537l-.357-1.193h-.59l-1.883 2.386-1.294 2.385 1.178 1.193-.947 3.578-1.294 1.193 3.293 1.193 3.767-1.193.474-1.193h.232l2.472-4.771-2.567-2.385Zm-25.676-53.633-.59-3.579-3.177 1.193-4.01-1.193-1.883-2.385-1.178-1.193-.948 1.193.358 1.193.59 1.192 2.115 2.386 1.883 2.386h.705l1.063-2.386h1.294l.821 3.578-.358 3.579h-2.715l-2.704 2.385.232 2.386.357 1.193-1.178 1.192h-1.537l.232-1.192-.474-1.193h-.947l-1.178 1.193-.474 1.192 1.41 3.579 2.358 2.385 2.357-1.192 1.536-3.579h1.063l.947-1.193 1.536-2.385 2.589-1.193-.358 2.386-.474 2.385h1.884l1.179-2.385.705-1.193 1.41-1.193-1.179-5.964-3.262-3.578ZM3.573 306.101l3.093-4.536-2.399-6.071-2.336-1.32-.263-1.587 5.398.277 5.651 1.15 3.799 3.216-.684-4.675 2.999 3.514.379 1.608 3.525 3.227 1.694 4.409-1.368 3.589-.62 6.784 2.209.607 1.63-.234.485 2.034 2.168.48 2.872 3.855-3.493.042-1.273 2.141-4.915-4.132-1.136-2.833-2.704-.256-5.567-2.193-3.767-1.204-4.914.149-.463-8.041Zm105.607 98.278-2.473-3.579-3.536-5.964-1.883-1.192-.821-1.193-2.115 1.193-3.294 2.385-1.652-1.193-1.768 1.193h.705l-.231 2.386h-3.999l1.768 1.193-.59 3.578h.59l.232 1.193.115 1.192 1.652 1.193h1.537l-.358 1.193-.116 1.193h4.01l.589 2.385-.358 2.386-2.589 1.193-2.946 1.192-2 3.579-1.178 2.386h-4.24l-.474 1.192-1.295-1.192h-2.61l-2.472 1.192-1.41 1.193-1.768 2.386 2.357 5.964 3.062 4.771.821 8.339 2.589 7.156h2.83l3.063-1.192h4.009l3.42-2.386v-10.725l1.178-10.724 6.714-5.964 2.946-1.193-.473-1.193h-1.652l.947-7.156-1.768-5.964 4.935-2.396Zm-38.877-15.495-.59-1.193-3.062-1.193h-6.008l-4.588 3.579 3.178 4.771 1.652 5.964h1.063l1.062 1.193 2.705-1.193 2.588-1.193.947 1.193.705 1.193 1.295-1.193h1.178l.947 1.193h1.41l1.768-1.193 1.41-3.579h1.179l.947-1.192h-.59l-1.294-1.193-2.241-2.386h-2.589l-3.293-2.385.22-1.193Z"/><path d="m65.016 374.581-1.883-2.386h-1.884l.116 1.193-4.24 2.386-1.884-2.386-1.884-3.578-4.01 2.385-3.882 2.386 4.125 8.339 6.482 7.156 4.588-3.578h3.294l1.41-2.386.947-1.192h-1.295l-.473-1.193 2-1.193h2.703l.474-1.193-1.536-1.192h-1.652l-1.516-3.568Z"/><path d="m71.372 331.671-5.303-2.385-3.652-1.193.59-1.193 1.536-1.192-.473-1.193.231-1.193-1.294-1.193h-1.652v1.193l-.358 1.193h-.116l-1.063-1.193-.589-1.193-1.652-1.193h-1.536l-.705-1.192-.821-1.193v7.157l.358 5.963-.59-1.192h-.589l-.116-2.386V326.9l-1.536 1.193-1.652 1.193v-1.193h.473l-.82-1.193-2.242 1.193-2.115 1.193h-2.589l-1.536 1.193h-1.883l-3.178-2.386-2-3.578-.357 2.385.231 1.193-2-1.193h-1.651l1.41 2.386 1.178 4.771-.82 2.386.231 2.385.82 1.193h1.41l.117 3.578-.116 2.386 2.473 7.157.705 8.338.231 9.532h3.883l1.537 2.386.947 1.193h.82l3.767-2.386 4.01-2.386 1.883 3.579 1.884 2.385 4.24-2.385-.115-1.193H63.1l-.115-4.771h.589l.474 1.193 1.883-1.193 1.768-2.386-.947-1.193.705-2.385-1.063-3.579.947-3.578 1.537-2.385 1.767 1.192 2.115 1.193.59-1.193.589-2.385.59-1.193-.116-2.386h.705l.589-1.192h-2l-2.704-4.772.59-1.192.473-1.193-.474-1.193-.231-1.193h.82l1.064-1.193-.474-2.385-1.4-1.172ZM55 347.167l.59 3.578 3.293 3.579 1.178 5.964-1.41 1.192-.705 1.193-1.178 2.386h-1.884l.474-2.386.357-2.385-2.588 1.192-1.536 2.386-.948 1.193H49.58l-1.526 3.578-2.357 1.193-2.358-2.386-1.41-3.578.474-1.193 1.179-1.193h.947l.473 1.193-.231 1.193h1.536l1.179-1.193-.358-1.193-.232-2.385 2.705-2.386h2.704l.358-3.578-.821-3.578h-1.294l-1.063 2.385h-.705l-1.884-2.385-2.115-2.386-.59-1.193-.357-1.192.947-1.193 1.179 1.193 1.883 2.385 4.01 1.193 3.146-1.193Z"/><path d="M117.535 304.259h-.937l-.82 1.193-5.062 1.193-4.83-1.193-2.704-2.386-3.767 3.579-4.946-1.193-.821 1.193v2.385h.947l.705 1.193h-5.06l-.358 1.193.358 1.193-.948 2.385-.82 1.193-2.115 2.386-3.063 1.192-3.767-2.385-3.651-3.579h-4.588l-2.115-1.192-2.947 2.385-3.177 2.386 1.999 1.193 1.063 1.192 3.42 1.193 2.588 1.193-.231 1.193h-.705l-.947 2.385-.705-1.192H68.35l-2.115-1.193h-1.884l-.231 1.193.473 1.192-1.536 1.193-.59 1.193 3.652 1.193 5.304 2.385 1.41 1.193.473 2.386-1.063 1.192h-.82l.231 1.193.474 1.193-.474 1.193-.589 1.193 2.704 4.771h2l-.59 1.193h-.705l.116 2.385-.59 1.193 2.358 1.193 2 2.385 4.24-1.193 3.178-1.192 5.061 3.578 3.652 8.339 2.115 1.193 1.768-1.193.589 1.193h.474l1.294-1.193.947-2.386h6.008l.463-2.385 3.294-2.386 1.652-3.578h-3.535l-2-1.193.705-1.193-.705-1.193-.821-1.192h-1.883l.589-1.193v-1.193h-1.999l1.178-7.157-2.946-5.964.589-1.192h1.179l1.41-1.193 1.526-1.193 3.883 1.193 4.24-2.386-.231-3.578-.589-2.386-.706-1.192h-.505l3.294-3.579 3.178-2.385-1.179-5.964-.231-4.761Z"/><path d="M146.514 310.224v-1.193h-3.536l-2.83-2.386-.705-4.771-2.589-1.192-3.062-1.193-1.294-1.193-1.063-2.386h-1.526l-1.768 1.193-2.831-1.193h-2.946l-.116 2.386.358 2.386-2.473 2.385-2.588 1.193.231 4.771 1.179 5.964-3.178 2.386-3.294 3.578h.474l.705 1.193.589 2.385.231 3.579-4.24 2.385-3.883-1.192-1.537 1.192-1.41 1.193h-1.178l-.589 1.193 2.946 5.964-1.179 7.157h2v1.192l-.59 1.193h1.884l.821 1.193.705 1.193 5.766-2.386 4.357 2.386 1.526-2.386.82-2.385 1.768 1.192v2.386h3.536l1.999-1.193h1.526l.947 1.193h.232l.231-1.193 1.294 1.193h5.304l3.536 1.193.705 2.385 1.178 2.386 2.357-1.193 1.179-1.193h3.536v-2.385l1.178-3.579 4.714-3.578 5.893-1.193 2.357-2.385v-1.193l-2.357-4.771-1.178-3.579h-2.357l-2.358-1.192v-2.386l-1.178-1.193h-1.179l-1.178 1.193-1.179-1.193v-1.193h-1.178l-1.179-1.192 2.357-1.193 2.357-3.579-1.178-3.578-1.179-1.193h-1.178v-2.385h-2.358l-1.157-1.193Z"/></g><path d="m145.393 195.758-1.189 1.171h-1.158l-2.462 1.204-3.368 1.235-1.925 4.729-4.557 4.803 2.105 1.171 1.031-.042 2.242 4.792 3.577 1.235 1.232 5.9-1.19 1.204-.936 2.375 2.504 3.589h1.758l-.042 1.203-.021 2.396v1.193l1.22 1.129h-1.157l-1.831 2.45.115 2.385h1.653l2.357-1.193 1.178-1.192 1.2 1.192h1.157l2.421-1.267 6.997.075v-1.193l2.357 1.193h2.358l2.43-7.21-2.346-2.375-1.189-1.204-1.189-2.375-1.158-1.171 2.347-7.178 3.472-5.9v-3.579l-1.178-2.385h-1.179l-4.714-2.386-2.305 2.343-1.231-1.15-7.008-2.428-1.158-2.375-1.22-2.364Z" fill="#F2F2F2"/><g opacity=".6" fill="#B01736"><path d="M135.566 249.433h-1.883l-1.536 1.193h-1.884l-.947 1.193-.474 1.193h-2.241l-1.526-1.193-1.999-2.386-4.946 2.386-.705 2.385-.589 1.193.116 1.193-.358 2.385-1.41-1.192-3.883 1.192.705 2.386 2.241 2.386 3.294 1.192 2.83 1.193v1.193h-.115l1.063 1.193h1.41l1.062 2.385-.357 1.193 2.946 2.386 3.178 3.578 2.241-1.193 1.884-1.192-1.179-7.157 4.125-4.771 5.178-3.579-.474-2.385.358-2.386-2.705-1.193h-2.588v-2.385l-.832-2.386Z"/><path d="m185.38 187.451 1.178-1.193-3.535-1.193-1.179 1.193 1.179 1.193h2.357Zm8.25 1.193h-1.179l-1.178 1.192-3.536-2.385-7.072-1.193h-2.357l-2.357 1.193 1.179 1.193-2.357 2.385h-2.357v2.386l-1.179 2.385v5.964l1.179 1.193-3.536 1.193-3.536 4.771v4.771l3.536 3.579 4.714-1.193 5.893-2.386 5.893 2.386 7.071-4.771 8.239-3.579v-1.193l1.179-2.385-4.714-5.964v-5.964l-3.525-3.578Zm-59.128 38.137h-1.884l-.358 1.193-1.294 1.192h-.947l-.589-1.192-2.831-1.193-2.704-1.193h-.358l-.474 1.193h-2.357l-1.999 1.193-.589 1.192-.821 1.193.821 5.964 2.588 4.771 1.295 1.193 1.178 1.193-.231 2.386.115 3.578 2 2.385 1.536 1.193h2.241l.474-1.193.947-1.192h1.884l1.536-1.193h1.884l5.766-9.532-.116-2.385 1.831-2.45h1.158l-1.221-1.129v-1.193l.021-2.396.042-1.203h-1.757l-2.504-3.589-1.463.042-1.652 1.193-1.168-.021Z"/><path d="m160.647 237.505-2.357-1.192v1.192l-6.998-.074-2.42 1.267h-1.157l-1.2-1.193-1.179 1.193-2.357 1.193h-1.652l-5.766 9.532.821 2.385v2.386h2.588l2.705 1.192-.358 2.386.473 2.386 2.357 1.192h3.536l1.179 2.386 1.178 1.193h2.357l1.179-1.193 5.893 3.578h2.357l2.357-1.192v-1.193l1.179 1.193h2.357l-1.179-2.386-2.325-.66 2.325-.533h2.357l1.179-1.193 2.357-1.192v-3.579l1.178-1.193v-2.385l-2.357-1.193h-1.178l1.178-1.193v-2.385l-4.714-5.964-3.536-4.771h-2.357v.01Zm-43.343-7.146-9.429-2.385-.473 1.192h-.821l-2.589 1.193h-1.883l-.474 1.193-.358 2.386-2.83 1.192-1.295 2.386 1.537 1.193 1.999 1.193v3.578l3.062 1.193 2.242 1.192.115 2.386.232 3.578 2.357 2.386-.358 1.193v2.385h1.768l.358 1.193h.821l3.882-1.193 1.411 1.193.357-2.385-.115-1.193.589-1.193.705-2.386 4.946-2.385-.116-3.579.231-2.385-1.178-1.193-1.295-1.193-2.588-4.771-.81-5.964Z"/><path d="M100.702 241.084v-1.193l-2-1.193-1.536-1.193h-4.714l-.82 1.193-2.116-2.385-2.241 2.385-1.179 1.193-2.115-1.193-.358 1.193-.231 1.193-2.947 2.385 2 3.579 2.704 3.578-.358 1.193-.589 1.193h.59l.357 1.192h-.59l-.589 1.193 2.242 2.386h4.24l1.063 2.385 1.295 1.193 5.535 2.386 7.071 3.578 1.063 1.193 1.063 2.385 1.652-2.385 1.294-2.386 1.536 1.193h1.768v-1.193l.705-1.193-.231-1.192-2.242-2.386-.705-2.385h-.82l-.358-1.193h-1.768v-2.386l.358-1.193-2.357-2.385-.232-3.579-.116-2.385-2.241-1.193-3.062-1.193-.021-2.385Z"/><path d="m98.114 210.092-1.178 1.193h-4.83l-2.242-1.193h-2.473l-1.999-3.578-3.536-1.193-1.062 1.193-.358 2.385-.705 1.193h-.821l-1.768 2.386-1.883 2.385-1.063 2.386h-.821l.947 1.193-.231 1.193h.705l2.946 1.192 2.241-1.192 1.063 1.192.705 2.386 2.242 1.193 1.883 1.192 2.83 3.579.359 3.578-1.526 2.386-.232 3.578 2.242-2.385 2.115 2.385.82-1.193H97.2l1.294-2.385 2.831-1.193.357-2.386.474-1.192h1.884l2.588-1.193h.821l.474-1.193-2.705-4.771 1.179-1.193 1.883-2.385-1.178-5.964-.705-4.772-4.125 1.193h-4.157Zm55.466 53.644-1.178 1.193h-2.357l-1.179-1.193-1.179-2.386h-3.535l-2.357-1.193-5.178 3.579-4.125 4.771 1.179 7.157-1.884 1.192-2.241 1.193.947 1.193 1.179 1.193-.59 2.385-.357 1.193 2.115 1.193 2.473 1.193 1.294 2.385 1.178 2.386h1.768l-.231 1.193 1.536 1.193 5.651-2.386 5.893-2.386 2.357-1.193 1.178-1.192v-5.964l-1.178-3.579 2.357-1.192v-2.386l-1.179-1.193 1.179-1.192 1.178-2.386 1.179-1.193-5.893-3.578Z"/><path d="m133.873 210.029-1.031.042-2.105-1.171-9.07 2.385-1.179-1.193-1.063-1.192-1.062 1.192h-2l-1.768-3.578-2.472-1.193-1.063 1.193-.821 1.193h-1.884l-1.999 1.193.705 4.771 1.179 5.964-1.884 2.385-1.179 1.193 2.705 4.771 9.428 2.386.821-1.193.589-1.193 2-1.193h2.357l.473-1.192h.358l2.705 1.192 2.83 1.193.589 1.193h.948l1.294-1.193.358-1.193h3.062l1.652-1.192 1.463-.043.936-2.375 1.189-1.203-1.231-5.9-3.578-1.236-2.252-4.813Zm-28.454 64.431 1.884-1.192.232-2.386-1.063-2.385-1.063-1.193-7.071-3.579-5.535-2.385-1.295-1.193-1.063-2.386h-4.24l-2.242-2.385-4.24 7.157 1.536 1.192 2.357 2.386.59 2.386.82 2.385.116 1.193 3.883 1.193 3.767 2.385h-.474l-.82 4.771v3.579l1.536 1.192 1.526-1.192 1.41 4.771 2.83 4.771.821-1.193 1.063-1.192 2.947-5.965h1.178l1.179-1.192-.232-2.386v-3.578h1.652l1.179-2.386h-1.652l-1.516-1.193Z"/><path d="M120.371 267.304v-1.193l-2.83-1.193-3.294-1.193.231 1.193-.705 1.193v1.193h-1.767l-1.537-1.193-1.294 2.385-1.652 2.386-.232 2.385-1.883 1.193 1.536 1.193h1.652l-1.178 2.386h-1.652v3.578l.231 2.386-1.179 1.192h-1.178l-2.947 5.964-1.062 1.193-.821 1.193 1.294 7.157 2.115 1.192.947 1.193 2.705 2.386 4.83 1.193 5.061-1.193.821-1.193h.947l2.589-1.193 2.473-2.385-.358-2.386.116-2.386h2.946l2.831 1.193 1.767-1.193h1.537l1.063 2.386 1.294 1.193 3.062 1.193 2.589 1.192 1.652-4.771-.232-3.578-1.536-1.193.231-1.193h-1.767l-1.179-2.385-1.294-2.386-2.473-1.193-2.115-1.192.357-1.193.59-2.386-1.179-1.193-.947-1.192-3.178-3.579-2.946-2.385.358-1.193-1.063-2.386h-1.41l-1.063-1.192h.126Zm12.722-75.082-4.472-1.193-6.24-1.193-4.598-5.964-4.946-5.964-1.652-2.385h-2.473l-1.536 1.193-2.589 2.385-3.536 3.578H98.81l-.116 2.386.232 1.193h.358l.115 1.193h-1.063l-1.178 1.192-1.063 2.386-.474 3.578.474 2.386-.116 1.193-1.178 1.193-1.41 1.192.705 1.193 1.294 1.193.358 3.578-1.179 1.193.232 2.386-.474 1.192h2.589l1.178-1.192h4.125l4.125-1.193 2-1.193h1.883l.821-1.193 1.063-1.193 2.473 1.193 1.767 3.579h2l1.063-1.193 1.062 1.193 1.179 1.192 9.071-2.385 4.556-4.803 1.926-4.729-1.537-1.193-1.767-2.385-.474-1.193-.337-2.396Z"/></g><g opacity=".4" fill="#B01736"><path d="m204.222 225.589-4.714-2.386-2.358-4.771-1.178 1.193-2.357 1.192-8.24-4.771-5.892-2.385-5.893 2.385 1.178 3.579-1.178 4.771h4.714l2.357 4.771 3.536 3.578h1.178v3.579l4.715 2.385h1.178l1.179 1.193 3.535-3.578 4.715 2.385 2.357-1.193 1.178-2.385 2.357-1.193h1.179v-1.193l-2.357-3.578h-3.536l1.179-1.193 1.168-2.385ZM160.64 119.506l-3.535-1.193-4.714 1.193-1.179 4.771 1.179 3.578 4.714 2.386 3.535-2.386 2.358-3.578-2.358-4.771Zm201.387-19.064h-5.893l-4.714 4.771 1.178 4.772 5.893 1.193h1.179l1.178-1.193h1.179l1.178-1.193v1.193l-1.178 1.193h1.178l1.179-1.193v-4.772l-2.357-4.771Zm54.172 27.413 2.357 1.193v3.578l3.535 2.386 2.357-3.578-2.357-7.157v-2.386l-1.178-2.385h-2.357v2.385h-2.357v5.964Zm-32.969-1.193-3.535-1.192-4.715-1.193-5.892 1.193 1.178 1.192v2.386h-2.357l-1.178-1.193v-1.193l1.178-1.192-3.536-1.193h-4.714l-1.178-1.193-7.072 1.193-7.071-1.193-1.179-1.193v1.193h-1.178v3.578l-1.179-2.385-2.357-1.193-1.178-1.193-4.715 3.579-4.714 4.771-5.893-2.386-4.714-3.578 1.179-3.579 1.178-2.385-2.357-4.771 4.714-2.386 3.536-1.193 5.893 3.579 2.357-2.386v-1.193h1.178v-7.156l-3.535-4.772-4.714-3.578-1.179-3.578-1.179-1.193v9.532l-7.071 5.964-5.893 4.771v7.156l-4.714 3.579-2.357 2.385v3.579l4.714 7.157 4.714 9.542 1.179 1.193v1.192h2.357v-1.192l2.357-1.193h2.357l2.357 1.193 2.358 2.385h8.239l9.418 1.193 2.357-1.193 1.179-1.193 1.178 1.193h4.714l5.893 4.771 7.072 5.964 35.335 21.46 2.357 2.385 7.072-1.192 8.239-2.386v-1.193l1.179-2.385 1.178 1.192h1.179l9.428-4.771 1.179-1.193h2.357l2.273.895 2.431-3.28v-2.386l-1.179-1.192-2.357-3.579 4.714-4.771v-2.386l-3.535-5.964-4.715-4.771-5.892-4.771-2.358-2.385-2.357 2.385-1.178-1.193h-1.179l-1.178 1.193v7.157l-1.179 7.157-1.178-1.193h-1.179l-2.357 1.193-2.357-1.193h-1.179l-1.178 2.385-3.536 1.193-1.179-2.385 1.179-2.386 2.357-1.193h1.179v-2.385l-1.179-2.386h1.179l-8.24-1.193-7.071 1.193-2.357-3.578-7.072-2.386-4.714 1.193v1.193l-1.178 1.193-1.179-2.386h-2.357l-1.179 1.193h-1.178l1.178-1.193v-2.386l-2.357-1.192h-2.357l1.179-1.193v-1.193h2.357l2.357 1.193 2.357-4.771h1.179l1.178-1.193v-1.193l3.588.021Zm-233.197 14.303v-1.193h-3.535l-2.357 1.193-1.179-2.385-1.652-1.193-2.241 1.193h-1.884l-5.893 2.385.821 4.771 1.178 3.579-1.062 1.192h-1.41l-.116 1.193-.232 1.193-3.535 1.193-.59 2.385-2.125 2.386.231 2.386 1.537 2.385 1.652 1.193 6.598 2.386 6.482 1.192 2.241 2.386h1.179l7.071-2.386 2.357-2.385 3.536 2.385 2.357 3.579h1.178l1.179 1.192 2.357 1.193 1.179-1.193h1.178l2.357 1.193 1.179 2.386h1.178l2.358 1.193v-7.157l-1.179-1.193h-1.179v-1.193h-1.178v-2.385l1.178-3.579-2.357-3.578-1.178-2.386v-3.578l-2.357-2.386v-1.192l-1.179-1.193h-4.714v-4.771l-2.357-2.386v-1.193l-4.714 2.386-2.358-1.193ZM39.217 105.203l-1.294 1.193h.116l1.178-1.193Zm11.66 3.578-6.714-1.193-1.652-2.385-1.884-1.193-1.41 1.193-1.178 1.193h.473l1.294 3.578-2.704-1.193-3.536-1.193 4.946 9.532 5.65 8.339 3.294 4.771h1.063l1.295-1.193 4.125-1.193-1.063-8.338-.358-3.579-.116-3.578-.589-1.193h-1.536l-2.589 2.386-2.115-2.386-.82-2.385 6.123.01Zm189.842-54.825-4.714-5.964-3.536 8.339-4.714 5.963h-3.535l-3.536 2.386h-1.179v1.193l-1.178 1.193-3.536 1.192-1.179 3.579 1.179 1.193-4.714 4.77-1.179 4.772-3.535 1.193h-3.536l-1.179 8.338-1.178 9.532-15.311 2.386-16.489 1.192v2.386l1.189 10.725-1.189 5.963 2.357 3.004 1.336 4.92 2.199 3.461 4.715-.671h7.071l1.179 1.193h2.357l-1.179-2.385v-1.193h1.179l4.714 4.771h2.357l1.179 1.193 1.178 4.771 1.179 1.193 7.061 1.192h2.357l5.893 5.964 2.357-2.385 1.178 1.192 2.357-3.578 1.179-3.578v-1.193l4.714-4.771-2.357-3.578-1.179-4.772 2.358-2.385 1.178-2.386 2.357-7.157 2.357 2.386 2.358-1.193 2.357-2.385v-2.386l1.178-2.385v-3.579h-2.357v-5.964l1.179-1.193 4.714-5.963 1.178-2.386 1.179-3.578h1.179l1.178 1.192 3.536-3.578v1.193h1.178l1.179-7.157-2.357-7.157h3.535l-2.357-4.77 1.179-1.194h-1.179l-1.178-1.192-3.536 1.192-1.178-3.578 1.178-3.578-4.725-5.9Z"/><path d="m366.741 157.654-7.071-5.964-5.893-4.771h-4.715l-1.178-1.193-1.179 1.193-2.357 1.192-9.418-1.192h-8.239l-7.071 9.542-1.179 3.578h2.357l1.179 1.193-2.357 7.157 1.178 2.385v1.193l-2.357 2.386-3.536-3.579h-1.178l-1.179 1.193-1.178-1.193v-1.192h-1.179l-2.357 1.192-1.179-2.385-2.357 2.385-1.178-1.192v-3.579l-8.24-5.964-8.239-2.385v4.771l2.357 4.771v5.964l-2.357 3.578v2.386l1.179 2.386-3.536 1.192h-2.357l-3.536 4.771-1.179 4.772 1.179 1.193h2.357l1.179 1.192h2.357v-1.192l1.178-2.386h4.715l1.178-1.193h1.179l2.357 4.771-4.714 4.771-5.893 4.772-1.179 3.578-1.178 2.385-7.072 2.386h-2.357l-2.357 1.193-3.536 5.964v3.578l-4.714 1.193-2.357 3.578 2.357 2.386 1.179 2.385v2.386l1.178 3.578-1.178 1.193v2.386l3.535-2.386 2.358-2.385h2.357v-1.193l4.714 2.385 3.536 1.193 4.714-1.193h3.536v1.193l2.357-1.193-1.179-3.578 2.357-5.964 7.072 2.386h2.357l2.357 2.385-1.179 2.386 3.536 2.385 2.357-1.192 2.357 3.578 2.357 2.386 2.357-1.193h4.715v1.193h2.357l1.178-1.193h1.179l1.178 1.193 2.358-1.193 3.535-1.193 7.072 7.157 11.775 1.192v-1.192l2.357-1.193 1.178-2.386 1.179-3.578h2.357l1.179-2.386-1.179-1.192v-1.193l4.714-9.542 9.429-9.543 1.178-7.157 1.179-1.192 2.357-1.193 1.179-1.193h1.178l2.357-1.193s1.943-.824 2.357 0c.21.416 0 1.193 0 1.193l1.179 2.386 7.071-3.579v-1.192l3.536-1.193 2.357-1.193h3.536l2.357 1.193 3.536-3.579 3.535-1.192v-1.193l2.357-2.386h3.536l4.714-1.192h4.714l1.179-2.386 1.179-1.193 5.471-3.323 5.125-2.641-1.178-3.578-2.358-3.579 1.179-4.771h1.179l1.104-1.48-2.273-.895h-2.357l-1.178 1.193-9.429 4.771h-1.178l-1.179-1.192-1.178 2.385v1.193l-8.24 2.385-7.071 1.193-2.357-2.385-35.399-21.481Zm-88.329-139.46v.596l-2.357 1.789-3.536-1.427-2.357-.83-1.178.958-2.358 1.31-1.178-1.907-1.179-.117-2.357-.362v2.386l-4.714 2.385-3.536 4.771v2.386l-1.178 5.964-1.179 4.771-3.535 1.193h-4.715l-7.071 5.964 9.428 11.928-1.178 3.578 1.178 3.579 3.536-1.193 1.179 1.193h1.178l1.179 1.192V63.53l1.178-2.386v-4.77l2.357 4.77v1.193h-1.178v5.964h2.357l1.179 5.964h-1.179v1.193l1.179 1.193h1.178v5.964l2.357 3.578 3.536 4.771 3.536 5.964 2.357 4.771 11.775 3.579 7.071-1.193 5.893-2.386 1.178-1.192v-2.386l2.358-2.386 2.357-3.578-1.179-2.386-1.178-1.192 2.357-7.157h-2.357v-7.157l-1.179-1.193v1.193l-1.179-8.339v-13.11l-1.178-2.385h-1.179l1.179-1.193-1.179-1.193v-1.193h-2.357l-1.178-3.578-1.179-2.386-2.357-1.192-2.357 1.193-1.179-1.194 2.357-1.192 2.358-2.386-2.358-1.193 1.179-1.192-1.179-1.193-2.357-1.193h1.179l1.178-1.193-1.178-1.192v-1.193l2.357 2.385 3.536 1.193-1.179-3.578-1.178-4.771v1.192h-3.536v1.193l-1.179-1.193v-1.192l-1.178-2.386v-1.193l-1.179 1.193v1.193h-2.357l-1.178-3.461.01-.15ZM153.569 104.01l-2.357 1.193 2.357 2.386h2.357l1.179 1.193h-1.179l-1.179 1.192v1.193h-1.178v4.771l1.178 2.386h2.358l3.535 1.193 2.357 4.771-2.357 3.578-3.535 2.386-4.715-2.386-1.178-3.578.978-3.973-2.157-1.991-1.178 1.193-3.536-3.579-1.179 1.193h-1.178v-2.386h-1.41l-.821 1.193-1.768 1.193h.589l-1.41 2.386-2.115-1.193-1.999 1.193h-2.126l1.179 3.578.947 2.385 1.179 2.386 1.062 2.386-.82 4.771 1.767 3.578h1.768l2.357-1.193 1.652 1.193 1.179 2.386 2.357-1.193h3.536v1.193l2.357 1.193 4.714-2.386v1.193l2.357 2.385v4.771h4.715l1.178 1.193v1.193l2.357 3.578v2.386l1.179 2.386 2.357 3.578h3.536l2.357 1.193 2.357-2.386h2.357l1.178-1.193h-1.178v-1.192l1.178-1.193v-3.579l3.536-2.385 3.536-1.193 2.357-2.386v-1.192l1.179-1.193h3.535l2.357-1.193-1.178-1.193-1.179-4.771-1.178-1.193h-2.357l-4.715-4.771h-1.178v1.193l1.178 2.386H186.6l-1.178-1.193-17.668-26.22v-3.579h-8.24l-5.945-1.214Z"/><path d="M217.174 170.763h-1.178l-2.358-1.193v-2.386l-1.178-1.192h-1.179v-4.772l1.179-2.385 2.357-7.157-5.893-5.964h-2.357l-4.714-1.672-5.893 1.672h-2.357l-1.179 1.193v1.193l-2.357 2.385-3.535 1.193-3.536 2.386v3.578l-1.179 1.193v1.193h1.179l-1.179 1.192h-2.357l-2.357 2.386-2.357-1.193h-3.536l-1.178 3.579v2.385h1.178v1.193h1.179l1.178 1.193v7.156h3.536l1.179 8.35 9.418 1.193 3.535 2.385 1.179-1.192h1.178l3.536 3.578v5.964l4.714 5.964 4.715-1.193v-1.193l1.178-1.193 7.071 2.386 2.358-2.386v2.386h1.178l1.179 1.193v3.578l4.714 1.193v1.193l1.179 1.192 2.357 1.193 2.357 4.771 8.239 5.964h1.179l1.178-1.192 2.357 1.192h1.179l2.357-2.385 2.357 1.193 1.179 2.385 2.357-2.385-1.179-2.386 2.357-2.386h-3.535l-1.179-1.192v-2.386l2.357-1.193 2.357 1.193 4.715-3.578 2.357-2.386-1.179-4.771-2.357-1.193v-3.578h-7.071l-3.536-4.771-2.357-3.579-2.357 1.193h-3.536v-2.385l-2.357-1.193h-1.179l-1.178-2.386v-1.193l-2.357-2.385h-1.179v-1.193l-2.357 1.193h-3.536v-2.386l-4.714-4.771h-1.178v-1.193l-1.158-2.385Zm-83.152-45.294-.947-2.386-1.178-3.578-2.589 3.578-2.704 2.386h-3.652l-1.883 2.385.821 1.193.589 1.193-1.768 3.578-1.652-1.193.474-1.192.357-1.193h-.705l-.231 1.193h-1.179l-.947-1.193-2.115 1.193h-2.241v1.192h.473l-.115 1.193-1.179 3.579-2.704 2.385-2.947 1.193.232 1.193.115 1.192-2.946 3.579-3.883 4.771h-.116l.116 1.193.947 1.193 1.179 1.192-.474 1.193-.116 1.193h1.063l1.537 2.385-1.41 3.579-.948 1.193h1.768l.947 1.192h2l2.115 5.964v2.386l.589 1.193h2.473l1.652 2.385 6.009-4.771.705-3.578v-2.386l2.125-2.385-.589-1.193h-.116l1.652-1.193 1.884-1.193-.232-2.385 2.115-2.386.59-2.385 3.535-1.193.232-1.193.116-1.193h1.41l1.063-1.193-1.179-3.578-.821-4.771 5.893-2.386-1.768-3.578.821-4.771-1.063-2.386-1.2-2.385Z"/><path d="M398.548 87.321v-2.386h-2.357v2.386l1.178 1.193-1.178 4.77 3.535-3.578v-1.192l-1.178-1.193Zm27.086-26.22-3.536-1.193h-3.536v2.386h-1.178v2.385l-2.357-1.193h-3.536v2.386l1.178 1.193h-1.178v1.193l-1.179 1.192-3.535 2.386-2.357 2.386-1.179-1.193v-1.193l-1.179-1.193-2.357 1.193-2.357 2.386-1.178 3.578v3.578h2.357v1.193l2.357-2.385v1.192l-1.179 2.386 2.357 2.386-1.178 4.77 1.178 1.193 1.179 2.386h-2.357l-1.179-1.193V94.5l-1.178 1.193h-1.179v2.385l1.179 2.386h2.357l1.178 2.385v2.386h2.358v-1.193h1.178l2.357 4.771 1.179 1.193v-2.385l1.178-1.193v2.385l2.357 3.579v-2.386l1.179 1.193h2.357l-2.357-7.157v-5.964l1.179-5.964 1.178-4.77 2.357-4.772h1.179l3.536-7.157 1.178 1.193 2.357-1.193v-1.192l-1.178-1.193h1.178l2.357 1.193 1.179-1.193v-1.193h-1.179l-1.178-1.193 3.535 1.193V69.45h2.358l-1.179-3.578-2.357-2.386v-1.192l-1.179-1.193h-3.535Zm27.085-26.22-2.357 2.386v1.192h1.179v1.193l1.178 1.193h-2.357l-2.357 1.193h1.179l1.178 1.192v1.193l1.179 1.193-2.357-1.193-3.536-1.193-1.178 1.193 1.178 2.386h-4.714l1.178 1.193v1.192h-1.178l-1.179-1.193v2.386l1.179 2.386-3.536-3.579-2.357 1.193v2.386-1.193l-2.357-1.193-2.357 1.193-1.179 1.193-1.178-1.193 2.357 3.578 4.714 1.193v1.193h-7.071l-2.357 1.193v1.192h3.535l2.357 2.386 1.179 2.386 1.179-1.193v3.578l2.357 1.193 1.178-1.193v1.193l1.179-1.193 2.357-1.193-1.179-2.385v-2.386l1.179 3.579h2.357l1.179-1.193-1.179-2.386-1.179-1.193v-1.192l2.358 1.192 1.178 2.386v1.193l2.357-4.771-1.178-1.193V56.35h1.178v-1.193h1.179v5.964l2.357-2.385 2.357-1.193 2.357-3.579-1.178-1.192V51.58h1.178v2.385l2.357 1.193 1.179-1.193 1.178-2.385 1.179 3.578 1.179-1.193V51.58h1.178v2.385l2.357-1.192V51.58l1.179 1.193 1.178-1.193v-1.193l-1.178-1.193h2.357l2.357-1.193 3.536-1.192v1.193l1.178-1.193h1.179l3.535-1.193h20.025l11.776-1.193 3.535-2.385 2.357-3.579 2.357-2.385-1.178-3.579-5.893-2.385-7.071 2.385v1.193l-1.179 1.193h-1.178v-1.193h-15.311l-3.536-3.578-2.357-1.193-1.178 2.386-3.536 1.192h1.178v-1.192h-2.357l-2.357 1.192-2.357-1.192h-3.536l-2.357 1.192h-2.357v1.193h-3.536v2.386l-1.178 1.193-2.357-2.386-2.357 2.386-2.357 1.192v-1.193l-1.169-2.385Zm-157.811 77.478h-1.178l-1.179 1.193h-3.536l-3.535 1.192-2.357-1.192-1.179-1.193-3.536 1.193h-4.714l-4.714 3.578-2.357 9.542h-1.179l-2.357-2.385v1.193h-1.178l-2.358-1.193-1.178-3.579-2.357-3.578-2.357-1.193-1.179 1.193v-1.193l1.179-1.193h2.357l-1.179-5.963-3.536-4.772-4.714 2.386-1.178 9.532h1.178l2.357 1.192-2.357 3.579-3.535 3.578-1.179-1.193h-1.179v1.193l-2.357-3.578-2.357-4.771-2.357 2.385-2.357 1.193-2.357-2.386-2.357 7.157-1.179 2.386-2.357 2.385 1.179 4.771 2.357 3.579-4.715 4.771v1.193l-1.178 3.578-2.357 3.578-1.179-1.192-2.357 2.385-2.357 7.157-1.179 2.385v4.772h1.179l1.179 1.193v2.385l2.357 1.193h1.178l1.179 2.385v1.193h1.178l4.715 4.771v2.386h3.535l2.357-1.193v1.193h1.179l2.357 2.385v1.193l1.179 2.386h1.178l2.357 1.193v2.385h3.536l2.357-1.193 2.357 3.579 3.536 4.771h7.071v3.578l2.357 1.193 1.179 4.771 5.893 1.193 1.178 2.386 2.357 2.385 2.358-1.193h2.357l7.071-2.385 1.179-2.386 1.178-3.578 5.893-4.771 4.714-4.772-2.357-4.771h-1.178l-1.179 1.193h-4.714l-1.179 2.386v1.192h-2.357l-1.179-1.192h-2.357l-1.178-1.193 1.178-4.771 3.536-4.771h2.357l3.536-1.193-1.179-2.386v-2.385l2.357-3.579v-5.963l-2.357-4.772v-4.771l8.24 2.386 8.239 5.964v3.578l1.179 1.193 2.357-2.386 1.178 2.386 2.357-1.193h1.179v1.193l1.179 1.193 1.178-1.193h1.179l3.535 3.578 2.357-2.385v-1.193l-1.178-2.386 2.357-7.157-1.179-1.192h-2.357l1.179-3.579 7.071-9.542-2.357-2.386-2.357-1.192h-2.357l-2.357 1.192v1.193h-2.357v-1.193l-1.179-1.192-4.714-9.543-4.714-7.156v-3.579l-5.893 4.771 1.178-2.385-2.357-2.386 2.357-1.193-4.693-9.531Zm-75.374 91.78-1.179-1.193h-1.179v-2.385l-2.357 2.385-7.071-2.385-1.179 1.192v1.193l-4.714 1.193-1.178 2.385v1.193l-8.24 3.579-7.071 4.771 8.239 4.771 2.357-1.193 1.179-1.193 2.357 4.772 4.714 2.385-1.178 2.386-1.179 1.192h3.536l2.357 3.579 4.714 2.385h4.714l3.536-3.578 3.536 3.578v2.386h2.357l4.714 1.193 2.357-1.193 3.536-2.386h1.179l2.357 1.193v-1.193h4.714l2.357-1.192v-3.579l1.179-3.578 1.178-2.386-1.178-2.385-2.358-1.193-2.357 2.386h-1.178l-2.357-1.193-1.179 1.193h-1.178l-8.24-5.964-2.357-4.772-2.357-1.192-1.179-1.193v-1.193l-4.714-1.193-.01-3.578Zm-42.05 20.256h-3.883l1.179-4.771-1.179-3.578-4.714 1.192-3.536-3.578v-3.578l-3.472 5.9-2.347 7.178 1.158 1.171 1.189 2.375 3.546 3.589-2.431 7.21 3.536 4.771 4.714 5.964 4.714-1.193 3.536-2.385 3.536-1.193h5.893v-1.193l1.178-1.193v-2.385l-4.714-2.386v-3.578h-1.179l-3.535-3.578-2.357-4.772h-.832v.011Zm-20.369-56.018-3.535-2.385-2.358 2.385-7.071 2.386h-1.178l-1.179-1.193-1.063-1.193-6.482-1.193-6.598-2.385-1.652-1.193-1.536-2.386-1.884 1.193-1.652 1.193h.116l.589 1.193-2.125 2.385v2.386l-.705 3.578-6.009 4.771 4.946 5.964 4.588 5.964 6.24 1.193 4.472 1.193.358 2.385.473 1.193 1.768 2.386 1.536 1.193 3.294-1.193 2.536-1.246h1.158l1.189-1.172 2.346 4.761 7.009 2.428 1.231 1.15 2.304-2.343 4.714 2.386h1.179l1.179 2.385v2.386l3.535-4.771 3.536-1.193-1.179-1.193v-5.964l1.179-2.385v-2.386h2.357l2.357-2.385-1.178-1.193 2.357-1.193h2.357l1.178-7.157-4.714-1.193h-3.536l-2.357-1.192h-1.178l-1.179-2.386-2.357-1.193h-1.178l-1.179 1.193-2.357-1.193-1.179-1.193h-1.178l-2.305-3.578Z"/><path d="m266.647 208.9-5.893-1.193-2.357 2.386-4.715 3.578-2.357-1.193-2.357 1.193v2.386l1.179 1.193h3.535l-2.357 2.385 1.179 2.386-2.357 2.385-1.179 2.386-1.178 3.578v3.579l-2.357 1.192h-4.715v1.193l-2.357-1.193h-1.178l-3.536 2.386-2.357 1.193 7.071 9.542-1.178 1.193-4.715 2.385-4.714-2.385-1.178 1.193-1.179 2.385-2.357 2.386 2.357 2.385 1.179 2.386h3.535l2.357 2.385 1.179-1.192h1.178l1.179 1.192 2.357 1.193v1.193l1.179-1.193h2.357v1.193l-1.179 2.386 1.179 1.192h1.178v4.772l1.179 1.192-2.357 2.386 3.536 1.193-1.179 3.578v2.386h1.179v1.192h-1.179l1.179 3.579 2.357 1.193 1.178-3.579 1.179-4.771h2.357l1.178-1.193 1.179-4.771 2.357-3.578h2.357l1.179 1.193h2.357l2.357-1.193 2.357-7.157 4.714-2.386 2.358 2.386 2.357 1.193h2.357l1.178 1.193v1.192l1.179 1.193 2.357 1.193 1.179-2.386 2.357-1.192 1.178-3.579 1.179-1.193-2.357-2.385v-3.578l5.892-3.579 3.536-4.771-4.714-3.578-4.714-4.772v-1.192h-3.536l-4.714 1.192-3.536-1.192-4.714-2.386v1.193h-2.357l-2.357 2.385-3.536 2.386v-2.386l1.178-1.192-1.178-3.579v-2.385l-1.179-2.386-2.357-2.385 2.316-3.535 4.714-1.193.042-3.622 3.535-5.964-2.357-2.385-.768-1.566-.41-.82Z"/></g><g opacity=".5" fill="#B01736"><path d="m211.284 292.342-1.178-2.385-4.715-1.193v-2.386l-3.535-2.386-2.357-3.578-4.715 7.157-2.357-1.193h-4.714l1.179 4.771-1.179 4.771 1.179 2.386v2.386l-3.536 4.771-3.536 2.385 3.536 4.771 7.071 1.193 1.179 1.193v1.193l2.357-3.579 2.357-5.964h3.536l2.357-1.192h1.178l2.358 1.192h2.357l2.357 2.386 3.536 2.386 1.178-1.193h2.357l2.357-3.579 1.179-2.385-2.357-3.578v-3.579l-1.179-2.385h-5.893l-2.357-2.386Zm73.018-21.459-2.357-1.193-1.178-1.193v-1.193l-1.179-1.193h-2.357l-2.357-1.192-2.357-2.386-4.714 2.386-2.358 7.156-2.357 1.193h-2.357l-1.178-1.193h-2.358l-2.357 3.579-1.178 4.771-1.179 1.193h-2.357l-1.178 4.771-1.179 3.578 1.179 1.193h-1.179l-2.357 1.193h1.178l3.536 3.578h3.536v1.193h1.178l1.179 1.193 2.357-1.193v-1.193l-1.179-1.193 2.358-1.192 2.357 1.192h-1.179v4.771l1.179-1.192 2.357 1.192-3.536 2.386h-3.536l1.179 2.386h1.179l2.357 2.385 1.178 2.386 2.357 1.192 2.358-1.192 7.071-2.386-1.179-2.385-1.178-3.579h-1.179l-1.178 1.193v-5.964l1.178-1.193h1.179l1.178-1.192v-1.193l1.179 1.193 1.178-1.193 4.715-10.725 3.535-10.745Z"/><path d="m197.154 270.883-3.536 1.192-2.357 1.193h-1.179v-1.193l-4.714 2.386-2.357-4.771-2.357-8.339-2.357-1.193h-2.357l-3.536-3.578v3.578l-2.357 1.193-1.179 1.193h-2.357l-2.325.532 2.325.66 1.179 2.386h-2.357l-1.179-1.193v1.193l-2.357 1.193 1.178 3.578 3.536 2.386 2.357-2.386 5.893 11.928h2.357l2.357-2.386 3.536 3.579 4.714 2.385h4.714l2.358 1.193 4.714-7.157 1.178-4.771h-1.178v-1.192h-1.179l-1.178-1.193 1.178-1.193-1.178-1.203Zm85.982 39.34-1.179-1.193v-1.192h-3.535l-3.536-1.193-7.071 2.385-2.357 1.193-2.358-1.193-4.714 2.386-4.714 1.193-1.179-1.193v1.193l-1.178 1.193 1.178 1.192v2.386l-1.178 2.386-1.179 1.192h-2.357v1.193l-3.536 7.157-1.178 3.578v7.157l2.357 2.385v1.193l1.179 1.193h1.178l-1.178 3.578v2.386l1.178 2.386v1.192h-2.357l2.357 7.157h1.179l2.357-2.385 3.535 1.192-2.357 3.579-2.357 2.385 2.357 2.386-2.357 5.964h1.179l1.178 2.385 1.179 1.193h4.714l2.357 1.193 1.179 1.193 4.714 1.193 2.357-4.772h2.357l1.179-2.385v-1.193h1.178v-2.386l3.536-3.578 7.071-11.928h2.358l2.357-1.193h1.178l2.357 2.386 1.179-2.386 3.536-3.578 2.357-3.578-5.893-1.193-7.071 1.193-1.179-1.193v-1.193h-4.714v-1.193l-2.357-8.339v-1.192h1.178v-1.193l1.179-1.193 3.535-1.193 3.536 2.386-1.178 2.385v2.386l2.357-1.193 1.178 1.193v2.386h1.179l1.178-1.193 1.179-2.386 2.357 1.193h1.179l1.178-1.193h4.714l-2.357-2.385 2.357-4.772v-3.578h-1.178l-3.536-2.385-4.714-2.386-1.179-1.193h-1.178v-3.578h-4.714v-1.193l-1.179-3.578h-1.179l-1.178-1.204Z"/><path d="m179.478 280.425-2.357 2.386h-2.357l-5.893-11.928-2.357 2.385-3.536-2.385-1.178-3.578h-2.358l-1.178 1.192-1.179 2.386-1.178 1.193 1.178 1.192v2.386l-2.357 1.193 1.179 3.578v5.964l-1.179 1.193-2.357 1.193 2.357 3.578 3.536 1.193 1.178 2.385 1.179 1.193h2.357l2.357 2.386v1.193l3.536 2.385 2.357 1.193h1.179v2.386l3.535-1.193h2.357l2.357 1.193 1.179 1.192 3.536-2.385 3.535-4.771v-2.386l-1.178-2.386 1.178-4.771-1.178-4.771-4.714-2.385-3.536-3.579Zm45.932 27.413-2.357-3.578-1.178 2.385-2.358 3.579h-2.357l-1.178 1.192-3.536-2.385-2.357-2.386h-2.357l-2.357-1.193h-1.179l-2.357 1.193h-3.536l-2.357 5.964-2.357 3.579v1.192l1.179 2.386v2.386l1.178 1.192 2.357 1.193v3.578h1.179v3.579l1.178 1.193 1.179 4.771 1.179 3.578 9.418-1.193 3.535-3.578 4.714-2.386 1.179-1.192h2.357l2.357-2.386 2.357-3.578 4.715-2.386 2.357-4.771 3.535-1.193-2.357-2.385h-1.178v-3.579l-3.536-3.578h-2.357l-2.357 1.193-1.179-1.193-1.168-1.193Z"/><path d="m241.906 276.846-2.357 1.193-3.535-2.386h-4.715v1.193h-3.535l-2.357 1.193h-5.893v1.193l-5.893 1.192v1.193l1.179 1.193-1.179 3.578h-4.714l-1.179-1.193h-1.178l-1.179 1.193v2.386l4.714 1.193 1.179 2.385 2.357 2.386h5.893l1.178 2.385v3.579l4.715 7.156 2.357 2.386 2.357-1.193h2.357l3.536 3.579v3.578h1.178l2.357 2.385 2.357 3.579h1.179v1.193l-1.179 1.193v2.385l2.358 2.386 3.535-7.157v-1.193h2.357l1.179-1.193 1.179-2.385v-2.386l-1.179-1.193 1.179-1.192v-1.193l1.178 1.193 4.714-1.193 4.715-2.386-1.179-2.385-2.357-2.386h-1.179l-1.178-2.385h3.535l3.536-2.386-2.357-1.193-1.179 1.193v-4.771h1.179l-2.357-1.193-2.357 1.193 1.178 1.193v1.192l-2.357 1.193-1.178-1.193h-1.179v-1.192h-3.536l-3.535-3.579h-1.179l2.357-1.192h1.179l-1.179-1.193-2.357-1.193-1.178-3.579h1.178v-1.192h-1.178v-2.386l1.178-3.578-3.536-1.193Z"/><path d="M238.364 264.93v-1.193l-2.358-1.193-1.178-1.193h-1.179l-1.178 1.193-2.347-2.375h-3.535l-1.179-2.385-2.357-2.386-3.536-2.386-3.535-1.192-2.358 2.385-1.178-1.193h-1.179l-1.178 2.386 1.178 2.386h-1.178l-1.179 2.385 1.179 1.193-1.179 2.385h3.536l1.178 1.193 5.893 1.193 1.179 3.578v1.193l1.178 1.193v2.386l1.179 3.578h2.357l2.357-1.193h3.536v-1.193h4.714l3.536 2.386 2.357-1.193 2.357-2.385-1.179-1.193v-4.771h-1.189l-1.178-1.193 1.178-2.386v-1.193h-2.357l-1.178 1.183Z"/><path d="m213.631 264.93-1.179-1.193h-3.535l-1.179 1.193-2.357 1.193v3.578l1.179 2.385h-3.536l-2.357 1.193v1.193h-1.179v1.193h1.179l-1.179 4.771 2.357 3.578 3.536 2.386 1.179-1.193h1.178l1.179 1.193h4.714l1.179-3.579-1.179-1.192v-1.193l5.893-1.193v-1.193h3.535l-1.178-3.578v-2.386l-1.179-1.192v-1.193l-1.178-3.578-5.893-1.193Z"/><path d="m219.527 232.745-2.357 2.386h-4.715l-4.714-2.386v1.193h-1.178l-2.357 1.193-1.179 2.385-2.357 1.193-4.714-2.386-3.536 3.579-1.179-1.193h-1.178v2.386l-1.179 1.192v1.193h-5.893l-3.535 1.193-3.536 2.386-4.714 1.192v2.386l-1.179 1.193h1.179l2.357 1.192v2.386l-1.179 1.193 3.536 3.578h2.357l2.357 1.193 2.357 8.339 2.358 4.771 4.714-2.386v1.193h1.178l2.358-1.193 3.535-1.192 1.179 1.192-1.179 1.193 1.179 1.193h2.357v-1.193l2.357-1.193h3.536l-1.179-2.385v-3.578l2.357-1.193 1.179-1.193 1.178-2.386-1.178-1.192 1.178-2.386h1.179l-1.179-2.386 1.179-2.385h1.178l1.179 1.193 2.357-2.386 3.536 1.193 3.536 2.385 2.357-2.385 1.178-2.386 1.179-1.193 4.714 2.386 4.714-2.386 1.179-1.192-7.072-9.543-4.714-1.192h-2.357v-2.386l-3.536-3.578-1.178 1.203Zm27.086 115.615 1.178-3.578h-1.178l-1.179-1.193v-1.193l-2.357-2.385v-7.157l.663-2.002.516-1.576-2.358-2.386v-2.385l1.179-1.193v-1.193h-1.179l-2.357-3.578-3.535 1.192-2.357 4.772-4.715 2.385-2.357 3.578-2.357 2.386h-2.357l-1.179 1.193-4.714 2.385-3.536 3.579-9.418 1.193v1.192l2.358 3.579v2.385l3.535 2.386h5.893v5.964l3.536 1.193 2.357 2.385 1.178 2.386v2.385l2.358 9.543-1.179 1.193v2.385l2.357-1.193 1.179-2.385 1.178 1.193h1.179v3.578l2.357 2.385 1.178 2.386h3.536l2.357-2.386 4.715 1.193 4.714 2.386 1.178 2.385v1.193h2.357l2.358-1.193 2.357 2.386h2.357l1.178 3.578-1.178 2.386 5.893 8.339h3.535l2.357-2.386 1.179 2.386v1.193l8.239 3.578 7.072-5.964-3.536-5.964-3.536-4.771h1.179v-1.193l-1.179-2.386v-2.385h-1.178l2.357-3.578 2.357-1.193-3.536-3.579-3.535-1.192-1.179 1.192h-1.178v-2.385l-1.179-1.193-1.179 2.386h-2.357l-2.357 4.771-4.714-1.193-1.179-1.193-2.357-1.193h-4.714l-1.179-1.192-1.178-2.386h-1.179l2.357-5.964-2.357-2.385 2.357-2.386 2.358-3.578-3.536-1.193-2.357 2.385h-1.179l-2.357-7.156h2.357v-1.182l-1.178-2.386v-2.386Z"/><path d="m171.243 304.259-2.357-1.193-3.536-2.385v-1.193l-2.357-2.386h-2.357l-1.179-1.193-1.178-2.385-3.536-1.193-2.357-3.578-5.735 2.321-5.809 2.45.232 3.578-1.652 4.771.705 4.771 2.831 2.386h3.535v1.193l1.179 1.193h2.357v2.385h1.178l1.179 1.193 1.179 3.578-2.358 3.579-2.357 1.193 1.179 1.192h1.178v1.193l1.179 1.193 1.179-1.193h1.178l1.179 1.193v2.385l2.357 1.193h2.357l1.179 3.579 2.357 4.771v1.192l3.535 5.965v7.156l5.893-2.385 2.357-7.157h1.179v1.193l1.178 1.193h5.893l1.179-1.193 1.178-2.386 9.418 2.386 4.714-2.386 1.179 1.193h1.179v-2.386l-1.179-3.578-1.179-4.771-1.178-1.193v-3.578h-1.179v-3.579l-2.357-1.192-1.178-1.193v-2.386l-1.179-2.385v-2.386l-1.178-1.193-7.072-1.193-3.535-4.771-1.179-1.193-2.357-1.192h-2.357l-3.536 1.192v-2.385h-1.168Z"/></g><g opacity=".3" fill="#B01736"><path d="m448.009 374.581-2.357-1.193-2.354-2.382-.004-.004-1.178 2.386v1.193l-1.179 2.385v2.386l-2.357 1.193-1.178 2.385 1.178 2.386v2.385h-4.714l-2.357 1.193-2.357 2.386h-2.357v2.385l1.178 1.193-2.357 2.386-1.178 5.964 1.178 2.385 1.179 3.579v1.192l-1.179 1.193-1.178 2.386-1.179 3.578h4.714l2.357-2.386 1.179 1.193h3.536l-2.358 2.386-2.357 1.193 3.536 7.156 4.714 8.339 3.536-3.578 1.178 1.193v1.192l2.358-1.192h2.357l3.535 1.192h3.536l1.179-1.192 8.239-3.579 7.071-2.385v1.193l1.179 3.578 1.178 1.193v2.385h1.179l1.179 1.193-1.179 1.193 4.714 7.157 3.536-3.579 5.893-3.578 1.178 2.385h1.179v-2.385h9.418l1.178-1.193 3.536-2.386 1.179-2.385 1.178-1.193v-2.385l-1.178-2.386 2.357-4.771-1.179-1.193v-3.578l-1.178-3.579v-1.193l1.157-2.395-5.872.01-1.178-1.193-1.179 3.578-2.357 1.193-.463-.468-.715-.714-1.179-1.193 2.357-2.385v-4.793l1.179-1.193-1.179-2.385h-3.536l-1.178 1.193v1.192l-1.179-1.192h-7.071l-1.179-4.771-8.239-1.193-5.893-9.532-8.197-4.654 1.105-1.235-14.111-4.835ZM312.573 243.469l-2.357-2.385-2.358-3.579-2.357 1.193-2.136-1.438-1.399-.947 1.178-2.386-2.357-2.386h-2.357l-7.071-2.385-2.358 5.964 1.179 3.578-2.357 1.193 4.714 4.771 4.714 3.578-3.535 4.771-5.893 3.579v3.578l2.357 2.386-1.179 1.193-1.178 3.578-2.357 1.193-1.179 2.385-3.535 10.725-4.715 10.724-1.178 1.193-1.179-1.193v1.193l-1.178 1.193h-1.179l-1.178 1.193v5.964l1.178-1.193h1.179l1.178 3.578 1.179 2.386 3.535 1.192h3.536v1.193l2.357 2.386h1.179l1.178 3.578v1.193h4.715l2.357-2.386 1.178-3.578v-1.193l2.357-1.193h5.893l2.357-3.578 2.357-2.385 2.358 2.385h3.535v-2.385l1.179-3.579 5.893-1.193 3.535-3.578v-4.771l2.357-3.579-2.357-5.963 3.536-3.579 4.714-2.385 11.786-11.928v-2.386l2.357-4.771 3.536-4.771-11.775-1.193-7.072-7.157-3.536 1.193-2.357 1.193-1.178-1.193h-1.179l-1.178 1.193h-2.357v-1.193h-4.715l-2.367 1.214Zm-9.429 82.25v3.578l-2.357 4.771 2.357 2.386h-4.715l-1.178 1.192h-1.179l-2.357-1.192-1.178 2.385-1.179 1.193h-1.178v-2.386l-1.179-1.192-2.357 1.192v-2.385l1.178-2.386-3.535-2.385-3.536 1.192-1.179 1.193v1.193h-1.178v1.193l2.357 8.339v1.192h4.714v1.193l1.179 1.193 7.071-1.193 5.893 1.193-2.357 3.578-3.536 3.579-1.178 2.385-2.357-2.385h-1.179l-2.357 1.193h-2.357l-7.072 11.927-3.535 3.579v2.385h-1.179v1.193l1.179 1.193v2.385h1.178l1.179-1.192 3.535 1.192 3.536 3.579-2.357 1.193-2.357 3.578h1.178l4.715 1.193 4.714-1.193 1.179-3.578v-2.386l1.178-1.193h1.179l1.178-1.193h1.179l4.714 2.386 3.536 2.386-2.357-4.772-2.358-3.578 2.358-2.385h2.357l-2.357-1.193-2.358-2.386h1.179l2.357-2.385-1.178-1.193h4.714v1.193l1.178 1.192 3.536 1.193 2.357 1.193v1.193l1.179 1.193 1.178-1.193h3.536l3.536 1.193v-2.386l-1.179-2.386 2.357-1.192v-2.386l-3.535-2.386-4.715-3.578 3.536-3.578 1.179-2.386v-1.193h1.178l1.179-1.192h2.357l1.178-4.772v-5.964l-1.178-2.385v-1.193l-1.179-1.193-2.357-1.192h-1.178l-1.179 1.192-5.893-3.578-5.893-4.771v-1.193h-2.357l-1.178 1.204Zm97.757-9.543-4.714 1.193-2.357 2.386h-1.179l-2.357-1.193h-5.893l-1.178-1.193h-1.179l-2.357 1.193-1.179 2.385h-3.535l-3.536-1.192v1.192l-1.179 2.386v4.771l-2.357 1.193h-4.714v-1.193h-3.536l-2.357 1.193-2.357 4.771-1.178 5.964v1.193h1.178l-1.178 1.192h-2.358l-1.178 2.386v4.771l4.714 2.386v4.771h3.536v1.193l1.178 1.193 1.179-1.193 1.179 1.193 2.357 3.578 1.178 3.578 1.179 1.193 2.357 1.193h1.178l1.179 3.578 2.357 4.771h1.179v-1.192l1.178 1.192v1.193h1.179l2.357 1.193 2.357 2.386 1.179 2.385h2.357l1.178-1.193v-2.385h1.179l2.357-1.193-1.179-1.193v-1.193h1.179l1.179-1.192-1.179-1.193 1.179-1.193 2.357-1.193v-1.193l1.178-1.192h1.179v-2.386l1.178-1.193h1.179v-3.578l2.357 1.193 3.536-1.193-1.179-8.339v-1.225h-3.536l-1.178-1.192 1.178-1.193 2.358-1.193v-7.157l7.071-4.771 1.178 1.193 1.179 2.385-1.179 1.193v2.386h2.358l4.714 2.385 3.536 2.386 1.178-1.193h2.357l8.24 2.386 9.405-3.574.013-.005-2.358-2.385h-3.535l-2.357-2.386-3.536-2.385-2.357-1.193v-5.964h-1.179l-2.357-2.386 1.179-1.192v-1.193l-1.179-1.193h-1.178l-1.179-4.771-2.357-3.578-1.179-1.193h-1.178l-1.179-1.193-3.535-1.193h-3.536l-1.179-1.193-1.178-2.385h-2.357l-1.179 1.193-2.336 3.599Z"/><path d="m442.117 347.166-9.418 3.579-8.24-2.386h-2.357l-1.178 1.193-3.536-2.386-4.714-2.385h-2.357v-2.386l1.178-1.193-1.178-2.385-1.179-1.193-7.071 4.771v7.157l-2.357 1.193-1.179 1.193 1.179 1.192h3.535v1.193l1.179 8.339-3.536 1.193-2.357-1.193v3.578h-1.179l-1.178 1.193v2.386h-1.179l-1.178 1.193v1.192l-2.357 1.193-1.179 1.193 1.179 1.193-1.179 1.192h-1.178v1.193l1.178 1.193-2.357 1.193h-1.179v2.385l2.358 3.579-1.179 5.964v2.385h1.179l-3.536 4.771 1.178 2.386 2.358 2.386h1.178l1.179-1.193h1.178v1.193h1.179v-1.225l1.178-1.193v8.339l2.357-1.193v-1.193l2.358 1.193 3.535 3.578h2.357v1.193l-1.178 1.193-2.357-1.193-2.357 3.579 1.178 2.385 2.357-1.193 5.893 3.579h1.179l4.714-2.386h3.536l2.357-2.385h2.357l1.178-3.579 1.179-2.385 1.178-1.193v-1.193l-1.178-3.578-1.179-2.386 1.179-5.964 2.357-2.385-1.179-1.193v-2.386h2.358l2.357-2.385 2.357-1.193h4.714v-2.386l-1.178-2.385 1.178-2.386 2.357-1.193v-2.385l1.179-2.386v-1.193l1.16-2.348.018-.037-1.178-1.193-1.179-2.385 1.179-1.193v-2.386l-1.179-2.385v-4.771l-1.178-1.193v-1.193h1.178v-3.579h1.179l-.021-3.519v-.006ZM353.777 253v-3.578l-1.178-1.193v-1.193l-2.357 1.193v1.193l-3.536 4.771-2.357 4.771v2.386l-11.786 11.927-4.714 2.386-3.536 3.578 2.357 5.964-2.357 3.579v4.771l-3.535 3.578-5.893 1.193-1.179 3.578v2.386h-3.535l-2.358-2.386-2.357 2.386-2.357 3.578h-5.893l-2.357 1.193v1.193l-1.178 3.578-2.357 2.386v3.578h1.178l1.179 1.193 4.714 2.386 3.536 2.385h1.178l1.179-1.193h2.357v1.193l5.893 4.771 5.893 3.579 1.178-1.193h1.179l2.357 1.193 1.178 1.192v1.193l1.179 2.386.015-.01v-.043l3.535-2.386 3.536-1.192 2.357 1.192 2.357 2.386h2.357l3.536 3.578 3.536-2.385h5.892l-.026.053h.012l-1.179 2.385h2.357l1.179-1.193h-1.179v-1.192l1.179-5.964 2.357-4.771 2.357-1.193h3.536v1.193h4.714l2.357-1.193v-4.771l1.179-2.386v-1.193l-.019-.019-1.16-1.174v-13.11l-7.071-4.771 2.357-9.542v-2.386l-2.357-1.192v-3.579l1.178-2.385 1.179-4.772 2.357-4.771-2.357-3.578-1.179-2.386-3.535-8.36-7.072-4.771ZM522.2 130.239v-4.771l1.178-3.578v-2.386l-1.178-1.193-1.179 3.579-1.178 5.964-3.536 3.578-5.893 1.193-1.178 1.192h-1.179l-1.178 2.386-3.536 3.579v1.192l1.178 1.193v1.193l-1.178 2.385 1.178 4.772v4.771l-5.892 5.964-1.179 3.578-2.357 4.771v4.771l-1.179 2.386-1.178 3.578h3.536l2.357 2.386 2.357-1.193h2.357l7.071 4.771 3.536 7.157v1.193l-1.179 1.193 1.179 3.578v3.578h-2.357l-3.536 2.386-1.178 3.578 4.714 4.771 3.535 2.386h-2.357l-2.357-1.193-2.357 1.193h-1.178v-3.578l-1.179-2.386v-1.193l1.179-2.385v-2.386l2.357-2.386h-1.179v-1.192l1.179-1.193v-4.771l-1.179-2.386v-4.771h-12.954l-2.357 3.578-1.178 2.386v3.578l-2.357 8.339-2.357 2.386-3.536 1.193-1.179 3.578-2.357 2.385-3.535 1.193-3.536 2.386-2.357-1.193-1.179 1.193-2.357 3.578h-3.536v-1.193l-1.178-1.192-4.714-1.193-3.536-2.386-2.357-1.193-1.179-2.385-1.178-3.578v-3.579l4.714 2.386 5.893 2.385-1.179 1.193h-2.357v1.193l3.536 2.385h4.714v-2.385l1.178-2.386h1.179l2.357-1.192 1.179-1.193h1.178v-2.386l9.429-4.771 1.178-3.578v-2.386l3.536-2.386 2.357-3.578-2.357-4.771-1.179-7.157 3.536-5.964 2.357-5.964 2.357-7.156 2.357-2.386 3.536-7.157-1.178-5.964v-5.963l4.714-4.772 7.071-11.917v-3.578l-2.357-3.579-5.893-2.385-4.714-2.386h-1.179l1.179-1.193h-1.179v-1.192l-5.892 7.156-5.893 8.339-9.418 7.157-7.071 3.578h1.178l-1.178 2.386h-1.179l-1.179 2.386h2.358l1.178 1.192-2.357 3.579-2.357 4.771v2.385l-1.179 2.386-1.178-1.193h-1.179l-2.357 2.386-1.178 3.578v1.193l1.178-1.193h1.179l2.357 4.771h1.178v2.386l-1.178 1.193v5.964l2.357 2.385v1.193l-7.071 8.339h-2.358l1.179-1.193v-1.193l-2.357-2.385-1.179-8.339-1.368.138-.2-.799-.526-.798 1.347-.043-.484-1.299-1.126-.767.663-1.981-3.009-3.983-4.715-3.578-4.714 4.771 2.357 3.578 1.179 1.193v2.386l-3.536 4.771h-1.178l-1.179 4.771 2.357 3.578 1.179 3.579-4.715 2.385-5.892 3.579-1.179 1.192-1.179 2.386h-4.714l-4.714 1.193h-3.536l-2.357 2.385v1.193l-3.535 1.193-3.536 3.578-2.357-1.193h-3.385c.46 1.398.567 2.181 1.028 3.579v2.385l1.178 2.386v1.193l-2.357 3.578-1.178 3.578h-2.358l-1.178 2.386 1.178 2.386 3.536 1.192-1.178 2.386 1.178 2.386h3.536l1.178 1.192 2.357-1.192h2.358v1.192l1.178 1.193 1.179-1.193h1.178l3.536 1.193 3.536 2.386 1.178 1.193 2.357 1.192-1.178 1.193-2.357 1.193 2.357 3.578 3.535 3.579 4.715-2.386 3.535 1.193h1.179l1.178-1.193h2.358v1.193l1.178 1.193h1.179l2.357 2.385-1.179 1.193-1.178 2.386v3.578l1.178 2.386 2.357 2.385v8.339l5.893 1.193 5.893-1.193 2.357 3.578 1.179 3.579 2.357 2.385 2.357 1.193 5.893 1.193 4.714 3.578 5.893 3.579 1.178 4.771 2.357 2.385h8.24l4.714 2.386 7.071-2.386 4.715-2.385h1.178v3.578l3.536 3.578h4.714l4.714 7.157h4.715l2.357 2.386 2.357 4.771 5.893-4.771 3.535-4.771 1.179-2.386v-1.193l1.178-1.193 1.179-2.385-2.357-1.193-1.179-1.193v-2.385l1.179-1.193h2.357l4.714-7.157 1.179-7.157-1.179-3.578-2.357 1.193-2.357-1.193-1.179-2.385h-2.357l-1.178-3.579h1.178l1.179-2.385v-8.339l-3.536-1.193-1.178-3.578v-8.339l1.178-4.771-1.178-5.964-1.179-3.579-1.179-1.192v-1.193l1.968-1.449 1.084-1.895-1.873-1.417v-4.771l4.714-2.386 2.357-5.963 2.358-14.303-2.358-2.386v-1.193l-1.178-1.192-2.357 2.385h-3.536l-2.357-2.385-3.536-2.386-1.178-3.578-1.179-2.386v-3.578l2.357-1.193v-1.193h1.179l4.714-3.578 2.357-2.386 2.357 1.193h2.357l1.179-5.964v-5.964l-4.714-4.771v-4.771h3.535l2.358-2.386v-3.578l-4.715-4.771-2.357-4.772h-3.536l-3.535 2.386h2.357l1.178 2.386v2.385l-4.714-1.193-1.178-3.578-4.715 1.193-1.178 4.771 1.178 4.771 2.358 3.579h2.357l2.357 2.385-1.179 5.964-2.357-4.771-7.071-3.578-5.893-4.772 1.179-1.192 2.357-4.772-1.179-2.385 3.536-3.579 2.336-3.61Z"/><path d="m332.563 335.302-3.535 1.193-3.521 2.376v5.921l-1.179 4.771h-2.357l-1.179 1.193h-1.178v1.193l-1.179 2.385-3.535 3.579 4.714 3.578 3.535 2.386v2.385l-2.357 1.193 1.179 2.385v2.386l11.786 2.386 2.357 1.192 1.178 1.193 2.357-2.385h2.357l3.536 1.192 1.179 1.193 18.836 2.386 2.357-2.386h1.178l2.357 1.193 1.179-1.193h1.179l-2.358-4.771-1.178-3.578h-1.179l-2.357-1.193-1.178-1.193-1.179-3.578-2.357-3.579-1.179-1.192-1.178 1.192-1.179-1.192v-1.193h-3.535v-4.771l-4.715-2.386v-4.771l1.179-2.386 1.173-2.332h-5.881l-3.536 2.385-3.535-3.578h-2.358l-2.357-2.386-2.357-1.193Zm113.089 38.086 2.357 1.193 14.111 4.835-1.105 1.235 8.197 4.654 5.893 9.532 8.239 1.193 1.179 4.771h7.071l1.179 1.192v-1.192l1.178-1.193h3.536l1.179 2.385-1.179 1.193v4.793l-2.357 2.385 1.179 1.193.715.714.463.468 2.357-1.193 1.179-3.578 1.178 1.193 5.872-.01h2.357l2.357-1.193 1.179 1.193h1.178l3.536-3.579h1.179l1.178 1.193 1.179-1.193h8.239l1.189-1.182 4.715 2.386 3.535-2.386 4.69.128 1.179-3.579 2.357-4.771h2.262l1.179-1.193v-2.385h1.178v-1.193l-2.357-5.964-4.714-4.771v-3.578l1.179-3.579 3.535-2.385 2.357-1.193-2.357-3.579-3.535-1.192-1.179-2.386v-3.578l-2.357-2.386h-1.179l-1.178-1.193v-1.192l-2.357-1.193-3.536-1.193-4.714-1.193-4.862 1.118-4.556-2.3v-15.496l9.418-2.385 8.239-4.771-2.357-2.386-4.714-2.385-1.044-8.319-2.357-4.771-2.357-2.386h-4.715l-4.714-7.157h-4.714l-3.536-3.578v-3.578H506.9l-4.715 2.385-7.071 2.386-4.714-2.386h-8.24l-2.357-2.385-1.178-4.771-5.893-3.579-4.714-3.578-5.893-1.193-2.357-1.193-2.357-2.385-1.179-3.579-2.357-3.578-5.893 1.193-5.893-1.193v-8.339l-2.357-2.385-1.178-2.386v-3.578l1.178-2.386 1.179-1.193-2.357-2.385h-1.179l-1.178-1.193v-1.193h-2.358l-1.178 1.193h-1.179l-3.535-1.193-4.715 2.386-3.535-3.579-2.357-3.578 2.357-1.193 1.178-1.193-2.357-1.192-1.178-1.193-3.536-2.386-3.536-1.193h-1.178l-1.179 1.193-1.178-1.193v-1.192h-2.358l-2.357 1.192-1.178-1.192h-3.536l-1.178-2.386 1.178-2.386-3.536-1.192-1.178-2.386 1.178-2.386h2.358l1.178-3.578 2.357-3.578v-1.193l-1.178-2.386v-2.385c-.461-1.398-.568-2.181-1.028-3.579l-2.4 1.174-3.536 1.193v1.192l-7.071 3.579-1.178-2.386s.209-.777 0-1.193c-.415-.824-2.358 0-2.358 0l-2.357 1.193h-1.178l-1.179 1.193-2.357 1.193-1.179 1.192-1.178 7.157-9.429 9.543-4.714 9.542v1.193l1.179 1.192-1.179 2.386h-2.357l-1.178 3.578-1.207 2.309v1.193l1.178 1.193V253l7.072 4.771 3.535 8.36 1.179 2.386 2.357 3.578-2.357 4.771-1.179 4.772-1.178 2.385v3.579l2.357 1.192v2.386l-2.357 9.542 7.071 4.771v13.11l1.16 1.174v-.022l3.536 1.192h3.535l1.179-2.385 2.357-1.193h1.179l1.178 1.193h5.893l2.357 1.193h1.179l2.357-2.386 4.714-1.193 2.336-3.599 1.179-1.193h2.357l1.178 2.385 1.179 1.193h3.536l3.535 1.193 1.179 1.193h1.178l1.179 1.193 2.357 3.578 1.179 4.771h1.178l1.179 1.193v1.193l-1.179 1.192 2.357 2.386h1.179v5.964l2.357 1.193 3.536 2.385 2.357 2.386h3.535l2.358 2.385-.013.005.021 3.519h-1.179v3.579h-1.178v1.193l1.178 1.193v4.771l1.179 2.385v2.386l-1.179 1.193 1.179 2.385 1.178 1.193-.018.037 2.354 2.382Zm61.237-274.14h-2.357l-5.893 2.386v3.578l4.714 1.193 3.536-1.193v-5.964Zm16.489 15.496-4.714-1.193 1.179 3.578h1.178l1.179-2.385h1.178Zm11.786 17.87 1.179-1.193v-2.385l-1.179-1.193-5.893 2.385 4.714 2.386h1.179Z"/></g><g opacity=".2" fill="#B01736"><path d="m541.051 125.469 1.179 2.386h3.536v-7.157l-4.715 4.771Zm175.48-52.45 1.178 1.192v1.193l2.357 1.193-1.178-3.578-1.179-1.193-1.178 1.193Zm-74.197 5.964-2.357-1.193 1.178 2.385 2.357 1.193v-2.385h-1.178Z"/><path d="m483.327 491.409 5.893 10.736 2.357 7.156 1.178 1.193h1.179l2.357 1.193 1.179 1.193 4.714-1.193 3.536-1.193v1.193l-1.179 1.193 5.893 8.338h4.714l2.357-1.192 1.179-2.386 5.893 1.193h3.535l1.179-1.193h1.178l1.179 1.193 2.357-3.579 1.121-2.395 4.714-1.193h4.714v-2.386l1.179-2.385 5.892 1.193 4.715-2.386h4.714v-1.193l1.178-1.193h1.179v1.193h1.179v1.193h1.178l2.357-1.193v2.386l1.179 2.385h4.714l5.893 1.193 1.178 3.578 1.179 4.772 9.428 2.385h1.179l1.178-1.193 5.893 2.386h2.357l3.536 1.193 2.357 2.385 8.24-4.771 2.357-7.157h-1.179l-1.178-2.385v-3.578l-1.179-1.193 2.357-5.964 3.536-4.771h1.178l3.536-3.579 1.152-2.332 1.159 1.172 2.357 1.193 8.239 4.771 7.072 3.578h1.178l1.179 1.193 4.714 1.193 3.536 1.193v7.156l7.071 8.339 10.597 2.386 9.418-2.386 2.357-1.193h1.178l9.429 2.386h3.535l3.536 2.386 2.357 2.385h2.357l2.357 1.193 7.025 7.199 16.479 2.386h1.178l1.179-1.193 1.178 1.193h2.358l2.357-1.193 3.535-2.386 16.479-4.771 2.357-4.771 8.24-7.157 5.893 1.193 4.714 2.386h4.714l7.071-1.193 5.893 3.578 8.24 1.193 2.357-3.578 3.535-3.579 3.536-2.385 2.357-2.386v-2.385h-1.178v-1.193l2.357-9.532 2.357-10.724 3.536-4.771 2.357-4.772-2.357-2.385v-2.386l-1.179-1.192-3.536 1.192-1.178-3.578 1.178-2.386 3.536-3.578v-1.193l1.179-1.192 4.714-2.386 5.853-4.207-2.357-3.579-3.536-3.578 1.179-2.386v-3.578l2.357-2.386-3.536-2.385h-1.178l-1.179-1.193 2.357-5.964-2.357-5.964-2.357 1.193h-1.178l-1.179-3.578-2.357-3.579-3.536 1.193-2.357 1.193v1.193h-1.178l-2.358-2.386v-2.22h1.347l1.144-1.392-4.838-2.435-1.103-1.146-.085-2.349h-1.179v-4.234l-3.496-4.68-1.179-4.771h-1.178l-1.179 1.193-2.25-4.665v-7.156l-1.178-2.386v-1.193l-1.179-1.193-1.178-2.385v-3.579l-1.179-2.385v-2.386l-1.178-2.385h-11.786v-2.386l-1.178-1.193v-2.385l-2.358-1.193-2.357-2.386-3.535-1.192h-4.715l-3.535 3.578h-2.357l-2.358 1.193-1.178 3.578-1.179 2.386h-2.357l-4.714 7.156-5.893 5.964 1.179-3.578-2.357-1.193-1.179-2.385v-1.193l-3.536 3.578h-7.071v1.193h-1.179l-3.535-1.193-1.179 2.386-5.893 1.193h-2.357l-1.178-4.772v-5.963l2.357-2.386v-3.578l2.357-7.157 2.357-5.964-3.536-3.578-1.178-5.964 2.357-2.386 1.179-2.386-2.358-3.578-2.357-2.385-.031-6.188-1.147-8.115-3.536-3.579-3.536-1.192 2.357-3.579 1.179-1.193-1.179-3.578-1.178-2.386h-8.239l-4.715-1.192-2.357-2.386h-2.357l-2.349-4.739 2.357-3.578v-3.579l2.357-3.578 1.179-1.193 1.179-2.386-.016-.016-4.699-4.755-1.178-2.385v-.016l-.009-.016v-5.949l-1.17-2.369v-.015l-.008-.017v-8.315l-2.349-2.377.012-.012-.02-.02 2.357-2.386 3.536-2.385 1.178-13.11v-16.669l-2.349-3.566-.007-.031-.001-.001-1.179-4.771v-1.193l1.179-2.386h1.179v-1.192l2.357 1.192h2.336l2.357-2.385 3.536-1.193 3.535 1.193h2.357l2.358-3.579v-4.771l2.357-1.192 1.178-1.193v-2.386l1.179-3.578 9.428-7.157v-1.193l-1.178-3.578-2.357-4.771v-4.771l-1.179-4.772-2.357-2.385-2.357-1.193-1.179-1.193v-3.578l-1.178-1.193-1.179-4.771 1.179-4.771-1.179-1.193v-3.578h-1.17l-1.179-1.193 2.357-2.385 1.179-3.579 1.179-1.193v-2.385l1.178-1.193-2.357 1.193-1.179 1.192-2.357-1.192-3.535 2.385v3.579h2.357l3.535-1.193v1.193l-1.178 1.193h-1.179l-2.357 3.578-2.357 1.193-1.179-1.193-1.178 2.385-2.357 1.193v3.579l-2.357-1.193-1.179-1.193v1.193h-8.229l-1.178 3.578-3.536 3.578h-1.179l1.179-2.385 2.357-2.386v-2.385l1.179-2.386 3.535-1.193 1.179-3.578-1.179-1.193-1.767-.894-1.768-.298h1.178l.59.298 5.303.894 4.714-4.771h1.179l2.357-4.771 4.714-4.771 1.179-3.579 7.071-4.771v-1.192l1.179-1.193 2.357-3.579 3.535-3.578 1.179-5.964-2.357-1.193-1.179-2.385v1.192l-1.178 1.193v-3.578h1.178l2.357 1.193v2.385l1.179-2.385v-5.964h-2.357v-3.579l-2.357-2.385-.021 2.45v1.192l-1.179-2.386V77.79l-1.178-1.193h-2.357l-4.715-7.157-1.178 1.193-1.179-1.193h-1.178v1.193h-5.893l-2.357 1.193-1.179-1.193h-1.157l-1.179 1.193-2.357 4.771h-3.536l2.357-5.964v-4.771h-7.071l1.179-1.193v-1.192l-3.536 1.192-2.357-1.192 2.357-1.193 3.536-3.579h1.178l1.179-1.192-2.357-2.386-3.536-1.193-1.179-1.193v-1.193h-2.357l-2.357 1.193h-1.179l-7.071 8.34-4.714 8.338 1.178 1.193v3.578l-7.071 2.386-1.178-1.193h-2.358v1.193l2.358 3.578 1.178 2.386h-2.357l-1.179-2.386-2.357 1.193h-1.178v1.193l-1.179 1.193h-1.178v1.192h-3.536l-1.179 1.193h-1.178v-1.193l-1.179-1.192-2.357 1.192-1.178 1.193 1.178-2.385 1.179-1.193-7.072-2.386-7.071 1.193-1.179 1.193 2.358 1.193h2.357v1.192l-2.357 1.193h-2.358l-4.714 1.193-3.536 1.193h-7.071l-7.071 3.578-2.357 2.386h-7.072l1.179 1.192 2.357 1.193-1.179 1.193-2.357 1.193-1.178 2.385v2.386l-2.357-2.386-3.536-1.192v1.192l5.893 5.964-1.179 1.193-2.357-2.386-1.179 1.193h-2.357l5.893 5.964-1.178 1.193v7.157h-1.179l-2.357 1.193h-1.179l3.536-3.579v-1.193l-4.714-1.192-3.536 1.192h-5.893l-14.142-2.385h-3.536l-2.357-1.193v1.193l-1.179 2.385-1.178 1.193 1.178 1.193v1.193h-1.178v2.385l1.178 1.193-1.178 3.578-1.179 2.386v2.386l-1.178 1.192 3.535 3.579 3.536 2.385v7.157l3.536 2.386 1.178 4.771-4.714 7.156 1.178 2.386-1.178 10.725-4.714 2.385 3.535 8.339 1.179 4.771h-1.179v-1.193l-2.357-1.192-1.178-1.193v-4.771l-1.179-2.386-1.178-1.193 4.714-11.917-1.179-2.386-2.357-1.192 1.179-1.193v-2.386l3.535-2.385 3.536-4.771-3.536-2.386-5.892-1.193-2.358-7.156-3.535-4.772-3.536-3.578h-3.536l2.357 4.771 4.715 4.771v3.579l-2.357 2.385h-3.536v4.771l4.714 4.771v5.964l-1.178 5.964h-2.358l-2.357-1.192-2.357 2.385-4.714 3.579h-1.179v1.192l-2.357 1.193v3.578l1.179 2.386 1.178 3.578 3.536 2.386 2.357 2.386h3.536l2.357-2.386 1.179 1.193v1.193l2.357 2.385-2.357 14.303-2.358 5.964-4.714 2.385v4.772l1.873 1.416-1.084 1.896-1.967 1.448v1.193l1.178 1.193 1.179 3.578 1.178 5.964-1.178 4.771v8.339l1.178 3.578 3.536 1.193v8.35l-1.179 2.385h-1.178l1.178 3.579h2.358l1.178 2.385 2.357 1.193 2.357-1.193 1.179 3.578-1.179 7.157-4.714 7.157h-2.357l-1.179 1.193v2.385l1.179 1.193 2.357 1.193-1.178 2.385-1.179 1.193v1.193l-1.179 2.386-3.535 4.771-5.893 4.771 1.179 8.339 4.714 2.385 2.357 2.386-8.239 4.771-9.418 2.386v15.495l4.556 2.301 4.862-1.119 4.714 1.193 3.535 1.193 2.358 1.193v1.192l1.178 1.193h1.179l2.357 2.386v3.578l1.178 2.386 3.536 1.193 2.357 3.578-2.357 1.193-3.536 2.385-1.178 3.579v3.578l4.714 4.771 2.357 5.964v1.193h-1.178v2.386l-1.179 1.192h-2.262l-2.357 4.772-1.179 3.578-4.69-.128-3.536 2.386-4.714-2.386-1.189 1.182h-8.239l-1.179 1.193-1.179-1.193h-1.178l-3.536 3.579h-1.178l-1.179-1.193-2.357 1.193-2.114-.118-1.422 2.503v1.193l1.179 3.579v3.578l1.178 1.193-2.357 4.771 1.179 2.386v2.385l-1.179 1.193-1.178 2.385-3.539 2.343-1.179 1.193-4.703.021h-4.715v2.386h-1.178l-1.179-2.386-5.893 3.578-3.535 3.579-4.715-7.157 1.179-1.193-1.179-1.192h-1.178v-2.386l-1.179-1.193-1.178-3.578v-1.193l-7.072 2.386-8.239 3.578-1.179 1.193h-3.535l-3.536-1.193h-2.357l-2.357 1.193v-1.193l-1.179-1.193-3.535 3.579 8.239 42.908 4.714-1.193v-2.385h2.357v-1.193l1.179-1.193 2.357 5.964 2.357 4.771 4.714 1.193 2.358 1.193h4.714v-1.193h3.535l1.179-1.193 4.714 3.579 2.351 4.78Z"/></g><path d="M962.762 492.66h-2.048l-2.208-4.064-2.192 4.064h-2.048l3.152-5.456-2.96-5.216h2.032l2.016 3.84 2.016-3.84h2.048l-2.96 5.2 3.152 5.472Zm6.563 0h-1.584v-.784c-.469.65-1.147.976-2.032.976a2.29 2.29 0 0 1-1.68-.688c-.459-.47-.688-1.099-.688-1.888 0-.79.229-1.403.688-1.84.459-.448 1.019-.672 1.68-.672.907 0 1.584.309 2.032.928v-1.12c0-.47-.133-.832-.4-1.088-.256-.256-.624-.384-1.104-.384-.704 0-1.344.293-1.92.88l-.624-1.12c.747-.747 1.691-1.12 2.832-1.12.853 0 1.531.218 2.032.656.512.426.768 1.088.768 1.984v5.28Zm-3.04-.912c.64 0 1.125-.283 1.456-.848v-1.168a1.587 1.587 0 0 0-.624-.624 1.596 1.596 0 0 0-.832-.24c-.405 0-.731.133-.976.4-.245.266-.368.613-.368 1.04 0 .426.123.773.368 1.04.245.266.571.4.976.4Zm7.869-.304c.554 0 .976-.256 1.264-.768.288-.523.432-1.163.432-1.92 0-.726-.144-1.339-.432-1.84-.288-.512-.71-.768-1.264-.768-.544 0-.96.256-1.248.768-.288.501-.432 1.114-.432 1.84 0 .757.144 1.397.432 1.92.288.512.704.768 1.248.768Zm0 1.408c-1.067 0-1.888-.406-2.464-1.216-.576-.822-.864-1.888-.864-3.2 0-1.974.24-3.366.72-4.176.49-.811 1.365-1.323 2.624-1.536.565-.096.954-.198 1.168-.304.224-.107.336-.251.336-.432h1.584c0 .352-.086.661-.256.928a1.771 1.771 0 0 1-.72.608 5.104 5.104 0 0 1-.832.336 7.64 7.64 0 0 1-.88.192c-1.472.234-2.272.869-2.4 1.904.224-.374.533-.667.928-.88a2.64 2.64 0 0 1 1.328-.336c.949 0 1.696.389 2.24 1.168.554.778.832 1.733.832 2.864 0 1.141-.294 2.106-.88 2.896-.587.789-1.408 1.184-2.464 1.184Zm10.483-.192h-1.584v-.784c-.469.65-1.146.976-2.032.976a2.29 2.29 0 0 1-1.68-.688c-.458-.47-.688-1.099-.688-1.888 0-.79.23-1.403.688-1.84.459-.448 1.019-.672 1.68-.672.907 0 1.584.309 2.032.928v-1.12c0-.47-.133-.832-.4-1.088-.256-.256-.624-.384-1.104-.384-.704 0-1.344.293-1.92.88l-.624-1.12c.747-.747 1.691-1.12 2.832-1.12.854 0 1.531.218 2.032.656.512.426.768 1.088.768 1.984v5.28Zm-3.04-.912c.64 0 1.126-.283 1.456-.848v-1.168a1.587 1.587 0 0 0-.624-.624 1.593 1.593 0 0 0-.832-.24c-.405 0-.73.133-.976.4-.245.266-.368.613-.368 1.04 0 .426.123.773.368 1.04.246.266.571.4.976.4Zm10.557 0c-.501.736-1.184 1.104-2.048 1.104-.864 0-1.525-.411-1.984-1.232v3.984h-1.6v-10.672h1.6v1.024c.224-.384.512-.683.864-.896a2.12 2.12 0 0 1 1.12-.32c.875 0 1.563.362 2.064 1.088.501.725.752 1.712.752 2.96 0 1.237-.256 2.224-.768 2.96Zm-2.528-.304c.533 0 .939-.246 1.216-.736.288-.502.432-1.142.432-1.92 0-.779-.144-1.414-.432-1.904-.277-.491-.683-.736-1.216-.736-.299 0-.592.101-.88.304a1.924 1.924 0 0 0-.624.752v3.168c.139.298.347.554.624.768.288.202.581.304.88.304Zm10.179.24c-.587.778-1.403 1.168-2.448 1.168s-1.867-.39-2.464-1.168c-.587-.779-.88-1.744-.88-2.896s.293-2.112.88-2.88c.587-.779 1.408-1.168 2.464-1.168s1.877.389 2.464 1.168c.589.768.879 1.728.879 2.88s-.3 2.117-.895 2.896Zm-3.712-1.008c.288.512.709.768 1.264.768s.976-.256 1.264-.768c.288-.512.432-1.142.432-1.888 0-.747-.144-1.371-.432-1.872-.288-.512-.709-.768-1.264-.768s-.976.256-1.264.768c-.288.501-.432 1.125-.432 1.872 0 .746.144 1.376.432 1.888Zm9.777 1.984h-3.66v-7.728h3.57c.75 0 1.33.186 1.73.56.4.362.6.832.6 1.408 0 .448-.12.826-.36 1.136-.24.298-.56.506-.96.624.42.096.77.325 1.05.688.28.352.42.757.42 1.216 0 .629-.21 1.136-.61 1.52-.4.384-.99.576-1.78.576Zm-.33-1.344c.72 0 1.09-.32 1.09-.96 0-.278-.1-.512-.29-.704-.18-.192-.45-.288-.8-.288h-1.73v1.952h1.73Zm-.07-3.28c.66 0 1-.294 1-.88a.84.84 0 0 0-.26-.64c-.16-.171-.41-.256-.74-.256h-1.66v1.776h1.66Zm9.9 3.776c-.56.693-1.34 1.04-2.36 1.04-1.01 0-1.83-.379-2.46-1.136-.62-.768-.93-1.744-.93-2.928s.31-2.155.93-2.912c.62-.758 1.44-1.136 2.46-1.136s1.8.346 2.36 1.04l-.82 1.088c-.37-.48-.83-.72-1.38-.72-.58 0-1.05.25-1.39.752-.34.501-.51 1.13-.51 1.888 0 .768.17 1.402.51 1.904.34.501.81.752 1.39.752.54 0 1-.24 1.38-.72l.82 1.088Zm7.5.848H1021l-1.82-3.232-.93 1.248v1.984h-1.6v-7.728h1.6v3.792l2.72-3.792h1.85l-2.56 3.472 2.61 4.256Z" fill="#444"/><circle cx="988.5" cy="501.66" r="4" fill="#444"/><circle cx="975.633" cy="578.918" r="4" fill="#444"/><path d="M939.879 597.918h-4.16v-10.672h4.032c.875 0 1.552.256 2.032.768s.72 1.163.72 1.952c0 .651-.16 1.19-.48 1.616a2.202 2.202 0 0 1-1.2.832c.523.075.96.368 1.312.88.363.502.544 1.083.544 1.744 0 .864-.24 1.563-.72 2.096-.48.523-1.173.784-2.08.784Zm-.512-6.224c.438 0 .763-.128.976-.384.224-.266.336-.618.336-1.056 0-.437-.112-.789-.336-1.056-.224-.266-.549-.4-.976-.4h-1.872v2.896h1.872Zm.064 4.656c.47 0 .822-.133 1.056-.4.246-.277.368-.661.368-1.152 0-.448-.122-.816-.368-1.104-.245-.288-.597-.432-1.056-.432h-1.936v3.088h1.936Zm4.084 1.76v-1.36c.33 0 .586-.176.768-.528.192-.352.33-1.013.416-1.984l.352-4.048h4.992v7.728h-1.584v-6.336h-1.952l-.208 2.784c-.107 1.366-.39 2.331-.848 2.896-.459.566-1.104.848-1.936.848Zm14.005-.192h-1.584v-.784c-.469.651-1.146.976-2.032.976a2.285 2.285 0 0 1-1.68-.688c-.458-.469-.688-1.098-.688-1.888 0-.789.23-1.402.688-1.84.459-.448 1.019-.672 1.68-.672.907 0 1.584.31 2.032.928v-1.12c0-.469-.133-.832-.4-1.088-.256-.256-.624-.384-1.104-.384-.704 0-1.344.294-1.92.88l-.624-1.12c.747-.746 1.691-1.12 2.832-1.12.854 0 1.531.219 2.032.656.512.427.768 1.088.768 1.984v5.28Zm-3.04-.912c.64 0 1.126-.282 1.456-.848v-1.168a1.6 1.6 0 0 0-.624-.624 1.593 1.593 0 0 0-.832-.24c-.405 0-.73.134-.976.4-.245.267-.368.614-.368 1.04 0 .427.123.774.368 1.04.246.267.571.4.976.4Zm4.269 2.88v-3.232c.363-.074.629-.261.8-.56.171-.298.299-.917.384-1.856l.352-4.048h4.992v6.336h.832v3.36h-1.6v-1.968h-4.176v1.968h-1.584Zm2.992-8.304-.208 2.784c-.075.96-.363 1.68-.864 2.16h3.024v-4.944h-1.952Zm7.107 6.336h-1.552v-7.728h1.6v4.848l2.64-4.848h1.632v7.728h-1.584v-5.008l-2.736 5.008Zm9.877 0h-3.664v-7.728h3.568c.758 0 1.334.187 1.728.56.406.363.608.832.608 1.408 0 .448-.122.827-.368 1.136a1.819 1.819 0 0 1-.96.624c.427.096.779.326 1.056.688.278.352.416.758.416 1.216 0 .63-.202 1.136-.608 1.52-.394.384-.986.576-1.776.576Zm-.336-1.344c.726 0 1.088-.32 1.088-.96a.958.958 0 0 0-.288-.704c-.181-.192-.448-.288-.8-.288h-1.728v1.952h1.728Zm-.064-3.28c.662 0 .992-.293.992-.88 0-.266-.085-.48-.256-.64-.16-.17-.405-.256-.736-.256h-1.664v1.776h1.664Zm9.941 3.648c-.587.779-1.403 1.168-2.448 1.168s-1.867-.389-2.464-1.168c-.587-.778-.88-1.744-.88-2.896s.293-2.112.88-2.88c.587-.778 1.408-1.168 2.464-1.168s1.877.39 2.464 1.168c.587.768.88 1.728.88 2.88s-.299 2.118-.896 2.896Zm-3.712-1.008c.288.512.709.768 1.264.768s.976-.256 1.264-.768c.288-.512.432-1.141.432-1.888 0-.746-.144-1.37-.432-1.872-.288-.512-.709-.768-1.264-.768s-.976.256-1.264.768c-.288.502-.432 1.126-.432 1.872 0 .747.144 1.376.432 1.888Zm11.477 1.136c-.555.694-1.339 1.04-2.352 1.04-1.014 0-1.835-.378-2.464-1.136-.619-.768-.928-1.744-.928-2.928s.309-2.154.928-2.912c.618-.757 1.44-1.136 2.464-1.136 1.013 0 1.797.347 2.352 1.04l-.816 1.088c-.374-.48-.832-.72-1.376-.72-.587 0-1.051.251-1.392.752-.342.502-.512 1.131-.512 1.888 0 .768.17 1.403.512 1.904.341.502.805.752 1.392.752.533 0 .992-.24 1.376-.72l.816 1.088Zm3.968.848h-1.6v-6.336h-1.744v-1.392h5.085v1.392h-1.741v6.336Zm8.381-.976c-.59.779-1.41 1.168-2.45 1.168-1.05 0-1.87-.389-2.47-1.168-.58-.778-.88-1.744-.88-2.896s.3-2.112.88-2.88c.59-.778 1.41-1.168 2.47-1.168 1.05 0 1.87.39 2.46 1.168.59.768.88 1.728.88 2.88s-.3 2.118-.89 2.896Zm-3.72-1.008c.29.512.71.768 1.27.768.55 0 .97-.256 1.26-.768.29-.512.43-1.141.43-1.888 0-.746-.14-1.37-.43-1.872-.29-.512-.71-.768-1.26-.768-.56 0-.98.256-1.27.768-.28.502-.43 1.126-.43 1.872 0 .747.15 1.376.43 1.888Zm12.34 1.984h-1.87l-1.82-3.232-.93 1.248v1.984h-1.6v-7.728h1.6v3.792l2.72-3.792h1.86l-2.56 3.472 2.6 4.256Z" fill="#444"/></svg>